<?xml version="1.0" standalone="no"?>
<!DOCTYPE svg PUBLIC "-//W3C//DTD SVG 20010904//EN"
 "http://www.w3.org/TR/2001/REC-SVG-20010904/DTD/svg10.dtd">
<svg version="1.0" xmlns="http://www.w3.org/2000/svg"
 width="1663.000000pt" height="1690.000000pt" viewBox="0 0 1663.000000 1690.000000"
 preserveAspectRatio="xMidYMid meet">

<g transform="translate(0.000000,1690.000000) scale(0.100000,-0.100000)"
fill="#000000" stroke="none">
<path d="M7980 16894 c-460 -25 -846 -71 -1230 -145 -1469 -286 -2805 -949
-3945 -1958 -285 -252 -666 -652 -922 -968 -1381 -1701 -2047 -3894 -1847
-6083 115 -1269 516 -2498 1171 -3589 99 -165 315 -492 336 -510 9 -7 17 -18
17 -23 0 -12 172 -243 284 -383 342 -427 784 -880 1181 -1210 493 -410 1066
-782 1640 -1065 264 -130 366 -173 379 -160 15 15 26 12 26 -9 0 -14 23 -28
99 -59 271 -113 646 -241 951 -325 238 -66 429 -111 438 -103 3 4 9 35 13 71
5 36 15 85 23 109 8 25 20 77 25 118 6 40 17 98 26 128 8 30 15 76 15 102 0
29 8 63 20 85 10 20 17 40 14 45 -4 7 33 214 66 358 9 42 23 123 37 213 3 21
10 40 14 43 5 3 9 19 9 36 0 17 11 85 24 152 13 66 29 153 36 191 24 141 49
281 60 335 6 30 13 82 16 115 4 33 13 94 21 135 8 41 17 138 20 215 3 77 10
149 16 160 6 12 9 159 8 410 -2 458 11 755 40 866 10 42 19 89 19 105 0 23 37
197 55 260 4 14 99 29 115 19 19 -12 11 -78 -13 -104 -13 -15 -31 -53 -40 -86
-8 -33 -20 -79 -26 -101 -15 -58 -14 -90 8 -164 26 -90 48 -137 66 -143 8 -4
15 -15 15 -25 0 -29 131 -131 235 -184 167 -85 405 -141 648 -154 156 -8 446
11 486 32 14 8 35 14 46 14 32 1 272 65 287 77 7 6 24 14 38 18 23 7 97 42
220 105 73 37 142 84 195 134 99 92 137 131 150 156 7 14 25 36 39 50 25 23
29 23 71 12 25 -7 54 -12 65 -12 33 0 22 -22 -31 -65 -28 -22 -76 -63 -107
-91 -31 -29 -88 -73 -127 -99 -38 -26 -83 -59 -100 -74 -29 -27 -46 -39 -126
-91 -109 -72 -216 -145 -229 -157 -8 -8 -51 -35 -95 -61 -44 -26 -94 -57 -110
-68 -17 -12 -52 -33 -80 -48 -27 -15 -63 -35 -80 -46 -37 -25 -87 -52 -207
-113 -135 -69 -173 -90 -191 -105 -18 -15 -55 -92 -92 -188 -13 -34 -28 -70
-34 -80 -6 -10 -20 -46 -30 -79 -11 -33 -31 -87 -45 -120 -14 -33 -26 -71 -26
-84 0 -14 -7 -33 -17 -43 -9 -10 -20 -37 -24 -61 -4 -23 -20 -80 -34 -127 -51
-167 -79 -278 -120 -475 -9 -44 -25 -116 -36 -159 -10 -44 -19 -96 -19 -117 0
-21 -8 -47 -20 -62 -12 -15 -20 -40 -20 -64 0 -21 -7 -66 -15 -100 -8 -33 -21
-103 -29 -155 -9 -51 -20 -111 -25 -133 -14 -55 -41 -196 -53 -275 -5 -36 -16
-92 -25 -124 -8 -33 -21 -100 -28 -150 -34 -228 -53 -328 -64 -339 -6 -6 -11
-30 -11 -53 0 -49 -1 -49 166 -60 100 -6 101 -6 107 17 4 13 7 38 7 55 0 17 6
37 13 43 9 7 16 46 20 113 3 57 12 119 20 138 8 19 17 73 21 119 4 46 13 99
22 119 8 20 19 75 24 122 4 48 16 104 24 125 9 20 16 65 16 100 0 35 9 87 20
121 11 32 20 81 20 107 0 26 7 64 16 85 8 20 22 73 29 117 8 44 22 123 31 175
9 52 25 116 35 142 10 26 19 69 19 97 0 28 9 79 19 113 10 35 24 81 29 103 43
165 87 305 103 333 10 18 19 46 19 61 0 15 7 36 15 47 8 10 15 30 15 44 0 14
12 50 26 80 14 30 37 78 50 106 13 28 24 57 24 64 0 8 9 23 19 34 11 12 32 46
47 76 15 30 37 65 48 76 12 12 41 45 66 73 34 39 52 51 74 51 26 0 28 -2 22
-27 -4 -16 -13 -32 -20 -38 -7 -5 -21 -26 -31 -45 -10 -19 -28 -48 -41 -65
-12 -16 -25 -42 -29 -57 -4 -15 -18 -34 -31 -43 -13 -8 -24 -20 -24 -26 0 -6
-25 -63 -55 -125 -30 -63 -55 -125 -55 -138 0 -14 -10 -30 -25 -40 -20 -13
-25 -25 -25 -56 0 -21 -9 -54 -19 -72 -11 -18 -23 -51 -26 -73 -4 -22 -14 -51
-22 -64 -10 -16 -13 -36 -9 -63 5 -28 1 -52 -13 -82 -10 -24 -22 -63 -26 -87
-4 -24 -16 -61 -26 -81 -12 -23 -19 -58 -19 -93 0 -35 -7 -70 -19 -93 -11 -23
-21 -72 -25 -127 -4 -49 -13 -97 -20 -105 -8 -8 -16 -45 -19 -82 -3 -36 -13
-83 -21 -103 -8 -19 -18 -70 -22 -113 -3 -42 -13 -90 -22 -107 -8 -16 -19 -68
-24 -115 -5 -47 -9 -95 -11 -107 -1 -12 -8 -28 -14 -35 -8 -7 -13 -38 -13 -75
0 -39 -8 -83 -20 -115 -14 -37 -20 -77 -20 -131 0 -56 -5 -88 -19 -115 -12
-24 -20 -70 -25 -131 -4 -62 -11 -100 -21 -111 -10 -11 -15 -37 -15 -72 l0
-56 138 -7 c193 -11 772 1 990 20 1583 135 3026 684 4293 1632 1452 1086 2516
2629 3025 4386 322 1113 412 2285 263 3437 -36 285 -84 545 -169 915 -62 273
-221 777 -343 1085 -801 2040 -2352 3678 -4332 4575 -91 41 -174 75 -185 75
-10 0 -20 4 -22 9 -6 18 -424 175 -703 265 -172 55 -395 116 -424 116 -15 0
-31 4 -37 10 -10 10 -234 63 -439 104 -293 58 -624 104 -955 131 -173 15 -820
27 -970 19z m-150 -65 c0 -5 -4 -9 -10 -9 -5 0 -10 7 -10 16 0 8 5 12 10 9 6
-3 10 -10 10 -16z m-970 -89 c0 -5 -4 -10 -10 -10 -5 0 -10 5 -10 10 0 6 5 10
10 10 6 0 10 -4 10 -10z m2690 -116 c0 -8 -5 -12 -10 -9 -6 4 -8 11 -5 16 9
14 15 11 15 -7z m-1060 -64 c0 -5 -4 -10 -9 -10 -6 0 -13 5 -16 10 -3 6 1 10
9 10 9 0 16 -4 16 -10z m-2280 -25 c0 -8 -4 -15 -10 -15 -5 0 -10 7 -10 15 0
8 5 15 10 15 6 0 10 -7 10 -15z m4520 -75 c0 -5 -7 -10 -15 -10 -8 0 -15 5
-15 10 0 6 7 10 15 10 8 0 15 -4 15 -10z m-1196 -61 c-3 -5 -10 -7 -15 -3 -5
3 -7 10 -3 15 3 5 10 7 15 3 5 -3 7 -10 3 -15z m-2838 -16 c-10 -10 -19 5 -10
18 6 11 8 11 12 0 2 -7 1 -15 -2 -18z m1274 -194 c0 -20 -24 -26 -35 -9 -8 13
14 42 26 34 5 -3 9 -14 9 -25z m2240 -50 c0 -5 -4 -9 -10 -9 -5 0 -10 7 -10
16 0 8 5 12 10 9 6 -3 10 -10 10 -16z m-2970 -74 c0 -8 -4 -15 -9 -15 -13 0
-22 16 -14 24 11 11 23 6 23 -9z m956 4 c10 -17 -13 -36 -27 -22 -12 12 -4 33
11 33 5 0 12 -5 16 -11z m-648 -20 c-2 -6 -8 -10 -13 -10 -5 0 -11 4 -13 10
-2 6 4 11 13 11 9 0 15 -5 13 -11z m1510 -41 c-6 -18 -28 -21 -28 -4 0 9 7 16
16 16 9 0 14 -5 12 -12z m-4333 -8 c3 -5 -1 -10 -9 -10 -9 0 -16 5 -16 10 0 6
4 10 9 10 6 0 13 -4 16 -10z m650 -119 c0 -8 -4 -16 -10 -18 -16 -5 -38 14
-30 26 9 16 40 9 40 -8z m1815 -37 c0 -8 -4 -12 -10 -9 -5 3 -10 10 -10 16 0
5 5 9 10 9 6 0 10 -7 10 -16z m-270 -9 c0 -8 -4 -15 -9 -15 -13 0 -22 16 -14
24 11 11 23 6 23 -9z m378 -12 c3 -19 -1 -23 -22 -23 -21 0 -26 5 -26 26 0 21
4 25 23 22 14 -2 23 -11 25 -25z m3902 17 c0 -5 -4 -10 -10 -10 -5 0 -10 5
-10 10 0 6 5 10 10 10 6 0 10 -4 10 -10z m-5530 -65 c0 -8 -4 -15 -9 -15 -13
0 -22 16 -14 24 11 11 23 6 23 -9z m6348 -116 c-2 -6 -8 -10 -13 -10 -5 0 -11
4 -13 10 -2 6 4 11 13 11 9 0 15 -5 13 -11z m-5533 -79 c3 -5 1 -10 -4 -10 -6
0 -11 5 -11 10 0 6 2 10 4 10 3 0 8 -4 11 -10z m3525 -20 c0 -5 -4 -10 -10
-10 -5 0 -10 5 -10 10 0 6 5 10 10 10 6 0 10 -4 10 -10z m1110 -10 c0 -5 -5
-10 -11 -10 -5 0 -7 5 -4 10 3 6 8 10 11 10 2 0 4 -4 4 -10z m-4184 -55 c-28
-15 -51 -12 -41 6 4 5 21 9 38 9 l32 0 -29 -15z m-2686 -10 c10 -12 9 -16 -5
-21 -17 -7 -38 13 -29 28 8 12 20 10 34 -7z m7015 -60 c0 -25 -4 -31 -26 -33
-29 -3 -44 18 -33 50 4 14 13 18 32 16 23 -2 27 -8 27 -33z m-6025 -5 c0 -5
-4 -10 -10 -10 -5 0 -10 5 -10 10 0 6 5 10 10 10 6 0 10 -4 10 -10z m-1239
-23 c-1 -12 -15 -9 -19 4 -3 6 1 10 8 8 6 -3 11 -8 11 -12z m609 3 c0 -5 -4
-10 -10 -10 -5 0 -10 5 -10 10 0 6 5 10 10 10 6 0 10 -4 10 -10z m7566 -21 c8
-14 -18 -31 -30 -19 -9 9 0 30 14 30 5 0 12 -5 16 -11z m199 1 c3 -5 1 -10 -4
-10 -6 0 -11 5 -11 10 0 6 2 10 4 10 3 0 8 -4 11 -10z m-1205 -96 c0 -16 -16
-19 -25 -4 -8 13 4 32 16 25 5 -4 9 -13 9 -21z m-6785 -4 c3 -5 -1 -10 -9 -10
-9 0 -16 5 -16 10 0 6 4 10 9 10 6 0 13 -4 16 -10z m2185 -50 c0 -5 -4 -10
-10 -10 -5 0 -10 5 -10 10 0 6 5 10 10 10 6 0 10 -4 10 -10z m-3065 -90 c3 -5
-1 -10 -10 -10 -9 0 -13 5 -10 10 3 6 8 10 10 10 2 0 7 -4 10 -10z m9372 -6
c-3 -3 -12 -4 -19 -1 -8 3 -5 6 6 6 11 1 17 -2 13 -5z m-3857 -19 c0 -9 -6
-12 -15 -9 -8 4 -12 10 -9 15 8 14 24 10 24 -6z m-1230 -21 c0 -8 -5 -12 -10
-9 -6 4 -8 11 -5 16 9 14 15 11 15 -7z m1340 -9 c0 -8 -4 -15 -9 -15 -13 0
-22 16 -14 24 11 11 23 6 23 -9z m3365 -15 c3 -5 1 -10 -4 -10 -6 0 -11 5 -11
10 0 6 2 10 4 10 3 0 8 -4 11 -10z m-4925 -9 c0 -6 -4 -13 -10 -16 -5 -3 -10
1 -10 9 0 9 5 16 10 16 6 0 10 -4 10 -9z m1080 -1 c0 -5 -2 -10 -4 -10 -3 0
-8 5 -11 10 -3 6 -1 10 4 10 6 0 11 -4 11 -10z m-2730 -20 c0 -11 -4 -20 -9
-20 -14 0 -23 18 -16 30 10 17 25 11 25 -10z m7360 5 c17 -21 5 -46 -17 -38
-25 9 -34 25 -21 40 14 17 23 16 38 -2z m-630 -10 c0 -8 -7 -15 -15 -15 -8 0
-15 7 -15 15 0 8 7 15 15 15 8 0 15 -7 15 -15z m-5235 -35 c3 -5 -1 -10 -9
-10 -9 0 -16 5 -16 10 0 6 4 10 9 10 6 0 13 -4 16 -10z m-3755 -10 c0 -5 -4
-10 -10 -10 -5 0 -10 5 -10 10 0 6 5 10 10 10 6 0 10 -4 10 -10z m7890 -26 c0
-9 -5 -14 -12 -12 -18 6 -21 28 -4 28 9 0 16 -7 16 -16z m-6790 -54 c0 -5 -4
-10 -10 -10 -5 0 -10 5 -10 10 0 6 5 10 10 10 6 0 10 -4 10 -10z m495 0 c3 -5
1 -10 -4 -10 -6 0 -11 5 -11 10 0 6 2 10 4 10 3 0 8 -4 11 -10z m265 0 c0 -5
-5 -10 -11 -10 -5 0 -7 5 -4 10 3 6 8 10 11 10 2 0 4 -4 4 -10z m2990 -15 c0
-8 -7 -15 -15 -15 -8 0 -15 7 -15 15 0 8 7 15 15 15 8 0 15 -7 15 -15z m3474
-16 c-3 -5 -10 -7 -15 -3 -5 3 -7 10 -3 15 3 5 10 7 15 3 5 -3 7 -10 3 -15z
m-8757 -21 c-3 -8 -6 -5 -6 6 -1 11 2 17 5 13 3 -3 4 -12 1 -19z m-247 -8 c0
-5 -7 -10 -15 -10 -8 0 -15 5 -15 10 0 6 7 10 15 10 8 0 15 -4 15 -10z m3370
-90 c0 -5 -4 -10 -10 -10 -5 0 -10 5 -10 10 0 6 5 10 10 10 6 0 10 -4 10 -10z
m5135 -28 c0 -18 -20 -15 -23 4 -3 10 1 15 10 12 7 -3 13 -10 13 -16z m-2665
-71 c0 -6 -4 -13 -10 -16 -5 -3 -10 1 -10 9 0 9 5 16 10 16 6 0 10 -4 10 -9z
m-5800 -27 c0 -8 -4 -12 -10 -9 -5 3 -10 10 -10 16 0 5 5 9 10 9 6 0 10 -7 10
-16z m3905 -4 c3 -5 -1 -10 -10 -10 -9 0 -13 5 -10 10 3 6 8 10 10 10 2 0 7
-4 10 -10z m4745 -15 c0 -8 -4 -15 -10 -15 -5 0 -10 7 -10 15 0 8 5 15 10 15
6 0 10 -7 10 -15z m2300 0 c0 -8 -7 -15 -15 -15 -8 0 -15 7 -15 15 0 8 7 15
15 15 8 0 15 -7 15 -15z m-10450 -25 c0 -5 -4 -10 -10 -10 -5 0 -10 5 -10 10
0 6 5 10 10 10 6 0 10 -4 10 -10z m1670 0 c0 -5 -2 -10 -4 -10 -3 0 -8 5 -11
10 -3 6 -1 10 4 10 6 0 11 -4 11 -10z m-230 -9 c0 -14 -18 -23 -30 -16 -6 4
-8 11 -5 16 8 12 35 12 35 0z m2070 -16 c0 -8 -7 -15 -15 -15 -8 0 -15 7 -15
15 0 8 7 15 15 15 8 0 15 -7 15 -15z m6385 6 c7 -12 -12 -24 -25 -16 -11 7 -4
25 10 25 5 0 11 -4 15 -9z m-9590 -50 c7 -12 -12 -24 -25 -16 -11 7 -4 25 10
25 5 0 11 -4 15 -9z m7389 -22 c-8 -14 -34 -11 -34 4 0 8 3 17 7 20 9 9 34
-13 27 -24z m-5214 2 c0 -6 -4 -13 -10 -16 -5 -3 -10 1 -10 9 0 9 5 16 10 16
6 0 10 -4 10 -9z m790 5 c0 -3 -4 -8 -10 -11 -5 -3 -10 -1 -10 4 0 6 5 11 10
11 6 0 10 -2 10 -4z m6300 -12 c0 -8 -5 -12 -10 -9 -6 4 -8 11 -5 16 9 14 15
11 15 -7z m-9612 -52 c2 -7 -3 -12 -12 -12 -9 0 -16 7 -16 16 0 17 22 14 28
-4z m6882 3 c0 -8 -7 -15 -15 -15 -16 0 -20 12 -8 23 11 12 23 8 23 -8z
m-4297 -50 c8 -18 -11 -31 -25 -17 -11 11 -3 32 12 32 4 0 10 -7 13 -15z
m5093 -44 c-9 -14 -33 -14 -41 -1 -4 6 -1 18 6 26 11 13 14 13 27 0 8 -8 11
-19 8 -25z m874 24 c0 -8 -4 -15 -9 -15 -13 0 -22 16 -14 24 11 11 23 6 23 -9z
m-155 -25 c3 -5 1 -10 -4 -10 -6 0 -11 5 -11 10 0 6 2 10 4 10 3 0 8 -4 11
-10z m-8235 -50 c0 -5 -4 -10 -10 -10 -5 0 -10 5 -10 10 0 6 5 10 10 10 6 0
10 -4 10 -10z m6882 -15 c0 -5 -5 -11 -11 -13 -6 -2 -11 4 -11 13 0 9 5 15 11
13 6 -2 11 -8 11 -13z m2641 0 c1 -5 -6 -11 -15 -13 -11 -2 -18 3 -18 13 0 17
30 18 33 0z m707 -55 c0 -5 -4 -10 -10 -10 -5 0 -10 5 -10 10 0 6 5 10 10 10
6 0 10 -4 10 -10z m-8265 -10 c-3 -5 -10 -10 -16 -10 -5 0 -9 5 -9 10 0 6 7
10 16 10 8 0 12 -4 9 -10z m835 -29 c0 -14 -18 -23 -30 -16 -6 4 -8 11 -5 16
8 12 35 12 35 0z m3040 -21 c0 -5 -4 -10 -10 -10 -5 0 -10 5 -10 10 0 6 5 10
10 10 6 0 10 -4 10 -10z m4880 -20 c0 -5 -4 -10 -10 -10 -5 0 -10 5 -10 10 0
6 5 10 10 10 6 0 10 -4 10 -10z m-6694 -37 c-10 -10 -19 5 -10 18 6 11 8 11
12 0 2 -7 1 -15 -2 -18z m3604 -27 c0 -3 -4 -8 -10 -11 -5 -3 -10 -1 -10 4 0
6 5 11 10 11 6 0 10 -2 10 -4z m-7742 -18 c-6 -18 -28 -21 -28 -4 0 9 7 16 16
16 9 0 14 -5 12 -12z m6870 -15 c2 -8 -5 -13 -17 -13 -21 0 -35 13 -24 24 10
10 36 3 41 -11z m3207 -14 c10 -15 -1 -23 -20 -15 -9 3 -13 10 -10 16 8 13 22
13 30 -1z m-9797 -101 c-6 -18 -28 -21 -28 -4 0 9 7 16 16 16 9 0 14 -5 12
-12z m712 2 c0 -5 -5 -10 -11 -10 -5 0 -7 5 -4 10 3 6 8 10 11 10 2 0 4 -4 4
-10z m6300 -20 c0 -5 -4 -10 -10 -10 -5 0 -10 5 -10 10 0 6 5 10 10 10 6 0 10
-4 10 -10z m3249 -13 c8 -10 7 -19 -4 -33 -13 -18 -15 -18 -31 -2 -18 18 -13
48 9 48 8 0 20 -6 26 -13z m-9089 -13 c0 -17 -22 -14 -28 4 -2 7 3 12 12 12 9
0 16 -7 16 -16z m7700 1 c0 -8 -7 -15 -15 -15 -8 0 -15 7 -15 15 0 8 7 15 15
15 8 0 15 -7 15 -15z m-9380 -21 c0 -9 -5 -14 -12 -12 -18 6 -21 28 -4 28 9 0
16 -7 16 -16z m-750 -14 c0 -5 -4 -10 -10 -10 -5 0 -10 5 -10 10 0 6 5 10 10
10 6 0 10 -4 10 -10z m1810 -10 c0 -5 -2 -10 -4 -10 -3 0 -8 5 -11 10 -3 6 -1
10 4 10 6 0 11 -4 11 -10z m140 -25 c0 -8 -6 -15 -14 -15 -17 0 -28 14 -19 24
12 12 33 6 33 -9z m5545 6 c10 -17 -12 -21 -25 -6 -10 12 -10 15 3 15 9 0 18
-4 22 -9z m-2515 -62 c0 -5 -7 -9 -15 -9 -15 0 -20 12 -9 23 8 8 24 -1 24 -14z
m-1340 -9 c0 -5 -2 -10 -4 -10 -3 0 -8 5 -11 10 -3 6 -1 10 4 10 6 0 11 -4 11
-10z m-1340 -45 c0 -8 -7 -15 -15 -15 -8 0 -15 7 -15 15 0 8 7 15 15 15 8 0
15 -7 15 -15z m8070 0 c0 -8 -4 -15 -10 -15 -5 0 -10 7 -10 15 0 8 5 15 10 15
6 0 10 -7 10 -15z m905 -13 c0 -18 -20 -15 -23 4 -3 10 1 15 10 12 7 -3 13
-10 13 -16z m-6995 -1 c0 -6 -4 -13 -10 -16 -5 -3 -10 1 -10 9 0 9 5 16 10 16
6 0 10 -4 10 -9z m-3405 -50 c3 -5 1 -12 -5 -16 -5 -3 -10 1 -10 9 0 18 6 21
15 7z m9925 -11 c0 -11 -7 -20 -15 -20 -8 0 -15 9 -15 20 0 11 7 20 15 20 8 0
15 -9 15 -20z m-10770 -31 c9 -16 8 -26 -5 -45 -27 -41 -85 -24 -85 26 0 58
63 71 90 19z m4330 1 c0 -5 -5 -10 -11 -10 -5 0 -7 5 -4 10 3 6 8 10 11 10 2
0 4 -4 4 -10z m4174 -41 c-3 -5 -10 -7 -15 -3 -5 3 -7 10 -3 15 3 5 10 7 15 3
5 -3 7 -10 3 -15z m211 -19 c0 -18 -6 -26 -23 -28 -13 -2 -25 3 -28 12 -10 26
4 48 28 44 17 -2 23 -10 23 -28z m3220 20 c11 -17 -5 -32 -21 -19 -7 6 -11 15
-8 20 7 12 21 11 29 -1z m-2712 -15 c8 -18 -11 -31 -25 -17 -11 11 -3 32 12
32 4 0 10 -7 13 -15z m-8275 -6 c-2 -6 -8 -10 -13 -10 -5 0 -11 4 -13 10 -2 6
4 11 13 11 9 0 15 -5 13 -11z m692 1 c0 -5 -4 -10 -10 -10 -5 0 -10 5 -10 10
0 6 5 10 10 10 6 0 10 -4 10 -10z m790 -20 c0 -5 -7 -10 -15 -10 -8 0 -15 5
-15 10 0 6 7 10 15 10 8 0 15 -4 15 -10z m7188 -11 c-2 -6 -8 -10 -13 -10 -5
0 -11 4 -13 10 -2 6 4 11 13 11 9 0 15 -5 13 -11z m-9781 -21 c-3 -8 -6 -5 -6
6 -1 11 2 17 5 13 3 -3 4 -12 1 -19z m3683 2 c0 -5 -4 -10 -10 -10 -5 0 -10 5
-10 10 0 6 5 10 10 10 6 0 10 -4 10 -10z m-4283 -52 c-3 -8 -6 -5 -6 6 -1 11
2 17 5 13 3 -3 4 -12 1 -19z m743 -4 c0 -8 -4 -12 -10 -9 -5 3 -10 10 -10 16
0 5 5 9 10 9 6 0 10 -7 10 -16z m1800 -14 c0 -5 -5 -10 -11 -10 -5 0 -7 5 -4
10 3 6 8 10 11 10 2 0 4 -4 4 -10z m8008 -18 c2 -7 -3 -12 -12 -12 -9 0 -16 7
-16 16 0 17 22 14 28 -4z m979 -14 c-3 -8 -6 -5 -6 6 -1 11 2 17 5 13 3 -3 4
-12 1 -19z m-9382 -18 c3 -5 -1 -10 -10 -10 -9 0 -13 5 -10 10 3 6 8 10 10 10
2 0 7 -4 10 -10z m10772 -26 c-3 -3 -12 -4 -19 -1 -8 3 -5 6 6 6 11 1 17 -2
13 -5z m-9354 -16 c6 -19 -3 -38 -18 -38 -17 0 -38 27 -30 40 9 14 42 13 48
-2z m8307 2 c0 -5 -4 -10 -10 -10 -5 0 -10 5 -10 10 0 6 5 10 10 10 6 0 10 -4
10 -10z m-8997 -38 c52 -45 -21 -126 -79 -87 -21 13 -25 23 -22 53 5 57 54 74
101 34z m8327 -77 c0 -8 -7 -15 -15 -15 -8 0 -15 7 -15 15 0 8 7 15 15 15 8 0
15 -7 15 -15z m-9050 -59 c0 -14 -4 -27 -9 -30 -18 -11 -41 6 -41 30 0 19 5
24 25 24 20 0 25 -5 25 -24z m8190 14 c0 -5 -4 -10 -10 -10 -5 0 -10 5 -10 10
0 6 5 10 10 10 6 0 10 -4 10 -10z m-6612 -28 c2 -7 -3 -12 -12 -12 -9 0 -16 7
-16 16 0 17 22 14 28 -4z m-2408 -67 c0 -8 -7 -15 -15 -15 -16 0 -20 12 -8 23
11 12 23 8 23 -8z m1325 6 c3 -5 1 -12 -5 -16 -5 -3 -10 1 -10 9 0 18 6 21 15
7z m-595 -11 c0 -5 -4 -10 -10 -10 -5 0 -10 5 -10 10 0 6 5 10 10 10 6 0 10
-4 10 -10z m-1390 -71 c0 -5 -4 -9 -10 -9 -5 0 -10 7 -10 16 0 8 5 12 10 9 6
-3 10 -10 10 -16z m10488 -86 c5 -17 -26 -29 -40 -15 -6 6 -7 15 -3 22 9 14
37 9 43 -7z m-1008 -19 c0 -8 -4 -12 -10 -9 -5 3 -10 10 -10 16 0 5 5 9 10 9
6 0 10 -7 10 -16z m-10650 -18 c0 -11 -19 -15 -25 -6 -3 5 1 10 9 10 9 0 16
-2 16 -4z m4592 -41 c0 -5 -5 -11 -11 -13 -6 -2 -11 4 -11 13 0 9 5 15 11 13
6 -2 11 -8 11 -13z m-3037 -30 c0 -11 -8 -21 -17 -23 -14 -3 -18 3 -18 23 0
20 4 26 18 23 9 -2 17 -12 17 -23z m-1405 -55 c0 -27 -27 -37 -47 -17 -20 19
-9 37 23 37 17 0 24 -5 24 -20z m3355 -19 c7 -12 -12 -24 -25 -16 -11 7 -4 25
10 25 5 0 11 -4 15 -9z m865 -1 c0 -5 -4 -10 -9 -10 -6 0 -13 5 -16 10 -3 6 1
10 9 10 9 0 16 -4 16 -10z m8680 -10 c0 -5 -4 -10 -10 -10 -5 0 -10 5 -10 10
0 6 5 10 10 10 6 0 10 -4 10 -10z m-10780 -25 c0 -8 -4 -15 -9 -15 -13 0 -22
16 -14 24 11 11 23 6 23 -9z m9837 -11 c-9 -9 -28 6 -21 18 4 6 10 6 17 -1 6
-6 8 -13 4 -17z m-11697 -54 c0 -5 -4 -10 -10 -10 -5 0 -10 5 -10 10 0 6 5 10
10 10 6 0 10 -4 10 -10z m13240 -40 c0 -5 -4 -10 -10 -10 -5 0 -10 5 -10 10 0
6 5 10 10 10 6 0 10 -4 10 -10z m-1325 -39 c7 -12 -12 -24 -25 -16 -11 7 -4
25 10 25 5 0 11 -4 15 -9z m1485 -11 c0 -5 -7 -10 -15 -10 -8 0 -15 5 -15 10
0 6 7 10 15 10 8 0 15 -4 15 -10z m-1060 -34 c0 -11 -19 -15 -25 -6 -3 5 1 10
9 10 9 0 16 -2 16 -4z m1270 -26 c0 -5 -4 -10 -10 -10 -5 0 -10 5 -10 10 0 6
5 10 10 10 6 0 10 -4 10 -10z m-10635 -50 c-5 -8 -11 -8 -17 -2 -6 6 -7 16 -3
22 5 8 11 8 17 2 6 -6 7 -16 3 -22z m315 10 c0 -5 -4 -10 -10 -10 -5 0 -10 5
-10 10 0 6 5 10 10 10 6 0 10 -4 10 -10z m490 -15 c0 -8 -7 -15 -15 -15 -8 0
-15 7 -15 15 0 8 7 15 15 15 8 0 15 -7 15 -15z m-3204 -26 c8 -14 -11 -33 -25
-25 -11 7 -4 36 9 36 5 0 12 -5 16 -11z m3294 1 c0 -5 -5 -10 -11 -10 -5 0 -7
5 -4 10 3 6 8 10 11 10 2 0 4 -4 4 -10z m8370 -9 c0 -6 -4 -13 -10 -16 -5 -3
-10 1 -10 9 0 9 5 16 10 16 6 0 10 -4 10 -9z m-8692 -30 c3 -8 -1 -12 -9 -9
-7 2 -15 10 -17 17 -3 8 1 12 9 9 7 -2 15 -10 17 -17z m8452 -2 c0 -5 -7 -9
-15 -9 -15 0 -20 12 -9 23 8 8 24 -1 24 -14z m297 -1 c-3 -8 -6 -5 -6 6 -1 11
2 17 5 13 3 -3 4 -12 1 -19z m-11507 2 c0 -5 -4 -10 -10 -10 -5 0 -10 5 -10
10 0 6 5 10 10 10 6 0 10 -4 10 -10z m1720 -26 c0 -17 -22 -14 -28 4 -2 7 3
12 12 12 9 0 16 -7 16 -16z m-40 -69 c0 -8 -4 -15 -9 -15 -13 0 -22 16 -14 24
11 11 23 6 23 -9z m-2970 -21 c0 -9 -5 -14 -12 -12 -18 6 -21 28 -4 28 9 0 16
-7 16 -16z m3182 -29 c0 -5 -5 -11 -11 -13 -6 -2 -11 4 -11 13 0 9 5 15 11 13
6 -2 11 -8 11 -13z m-2594 -37 c-6 -18 -28 -21 -28 -4 0 9 7 16 16 16 9 0 14
-5 12 -12z m10772 2 c0 -5 -4 -10 -10 -10 -5 0 -10 5 -10 10 0 6 5 10 10 10 6
0 10 -4 10 -10z m-8065 -40 c-5 -8 -11 -8 -17 -2 -6 6 -7 16 -3 22 5 8 11 8
17 2 6 -6 7 -16 3 -22z m11095 6 c0 -3 -4 -8 -10 -11 -5 -3 -10 -1 -10 4 0 6
5 11 10 11 6 0 10 -2 10 -4z m-14600 -16 c0 -5 -7 -10 -15 -10 -8 0 -15 5 -15
10 0 6 7 10 15 10 8 0 15 -4 15 -10z m13086 -1 c10 -17 -13 -36 -27 -22 -12
12 -4 33 11 33 5 0 12 -5 16 -11z m-13026 -49 c0 -5 -4 -10 -10 -10 -5 0 -10
5 -10 10 0 6 5 10 10 10 6 0 10 -4 10 -10z m1288 -71 c-2 -6 -8 -10 -13 -10
-5 0 -11 4 -13 10 -2 6 4 11 13 11 9 0 15 -5 13 -11z m3392 -24 c0 -8 -7 -15
-15 -15 -8 0 -15 7 -15 15 0 8 7 15 15 15 8 0 15 -7 15 -15z m-2046 -41 c8
-21 -1 -34 -24 -34 -22 0 -34 15 -26 35 7 20 42 19 50 -1z m9356 -4 c0 -5 -4
-10 -10 -10 -5 0 -10 5 -10 10 0 6 5 10 10 10 6 0 10 -4 10 -10z m-7910 -21
c0 -5 -7 -9 -15 -9 -15 0 -20 12 -9 23 8 8 24 -1 24 -14z m625 -69 c-3 -5 -10
-10 -16 -10 -5 0 -9 5 -9 10 0 6 7 10 16 10 8 0 12 -4 9 -10z m10149 -29 c14
-15 15 -24 6 -40 -19 -37 -70 -23 -70 19 0 41 35 53 64 21z m-12067 -51 c8
-12 9 -21 3 -25 -15 -9 -30 4 -30 26 0 24 12 24 27 -1z m248 1 c7 -12 -12 -24
-25 -16 -11 7 -4 25 10 25 5 0 11 -4 15 -9z m-537 -19 c2 -7 -3 -12 -12 -12
-9 0 -16 7 -16 16 0 17 22 14 28 -4z m12160 -14 c-6 -18 -28 -21 -28 -4 0 9 7
16 16 16 9 0 14 -5 12 -12z m-9440 -26 c2 -7 -3 -12 -12 -12 -9 0 -16 7 -16
16 0 17 22 14 28 -4z m7137 -51 c7 -12 -12 -24 -25 -16 -11 7 -4 25 10 25 5 0
11 -4 15 -9z m-9255 -21 c0 -5 -4 -10 -10 -10 -5 0 -10 5 -10 10 0 6 5 10 10
10 6 0 10 -4 10 -10z m1195 -50 c3 -5 1 -10 -4 -10 -6 0 -11 5 -11 10 0 6 2
10 4 10 3 0 8 -4 11 -10z m-4705 -20 c0 -5 -7 -10 -15 -10 -8 0 -15 5 -15 10
0 6 7 10 15 10 8 0 15 -4 15 -10z m445 -19 c-9 -16 -25 -3 -18 15 4 10 9 12
15 6 6 -6 7 -15 3 -21z m14375 8 c0 -12 -29 -24 -37 -16 -3 4 -3 13 0 21 6 16
37 11 37 -5z m-8375 -39 c228 -49 229 -50 248 -75 10 -14 23 -25 29 -25 5 0
51 -20 101 -44 51 -25 110 -48 132 -51 22 -4 69 -16 104 -26 102 -31 496 -28
556 4 11 6 38 14 60 18 22 4 76 17 120 29 173 46 219 48 359 15 33 -8 76 -15
94 -15 18 0 40 -4 50 -9 18 -10 247 -54 362 -70 114 -16 264 -41 305 -50 22
-5 96 -16 165 -26 69 -9 139 -20 156 -26 17 -5 44 -9 60 -9 39 0 273 -53 302
-69 12 -6 27 -9 32 -6 6 3 22 0 37 -8 16 -8 47 -20 70 -26 26 -7 53 -24 73
-47 25 -29 36 -35 55 -30 21 5 29 0 49 -33 14 -22 30 -42 36 -46 5 -3 10 -19
10 -35 0 -18 11 -41 30 -62 17 -18 37 -53 46 -78 9 -25 25 -65 36 -89 20 -43
78 -198 103 -277 27 -84 47 -386 38 -577 -11 -237 9 -497 47 -600 10 -29 33
-104 50 -167 35 -122 38 -178 19 -285 -6 -33 -11 -73 -11 -90 1 -16 -8 -44
-19 -61 -11 -18 -19 -49 -19 -75 0 -43 -25 -162 -62 -294 -11 -38 -23 -92 -28
-120 -4 -27 -13 -70 -19 -95 -8 -36 -7 -50 4 -67 21 -32 18 -63 -10 -117 -14
-26 -25 -57 -25 -69 0 -12 -9 -37 -20 -55 -11 -18 -20 -45 -20 -60 0 -15 -6
-36 -14 -47 -7 -11 -21 -45 -31 -75 -10 -30 -21 -59 -25 -65 -4 -5 -13 -28
-20 -50 -7 -22 -19 -50 -27 -63 -7 -12 -11 -27 -8 -33 8 -11 -23 -97 -42 -120
-8 -9 -18 -34 -24 -55 -16 -62 -41 -114 -55 -114 -8 0 -21 14 -30 32 l-16 32
-24 -40 c-13 -21 -24 -49 -24 -61 0 -12 -7 -28 -16 -35 -41 -34 -83 -87 -133
-168 -15 -25 -35 -58 -45 -73 -9 -16 -23 -26 -29 -24 -7 2 -20 0 -30 -5 -14
-7 -17 -16 -12 -37 5 -24 2 -30 -23 -40 -16 -7 -39 -22 -51 -34 -11 -12 -33
-32 -48 -44 -15 -13 -56 -48 -91 -78 -80 -71 -107 -72 -107 -5 0 41 -2 45 -26
48 -20 2 -34 -7 -65 -45 -21 -26 -46 -54 -56 -61 -10 -7 -18 -20 -18 -28 0 -8
-11 -20 -25 -26 -14 -6 -25 -17 -25 -25 0 -8 -16 -21 -36 -29 -43 -18 -54 -9
-54 41 0 36 -25 131 -38 148 -5 7 -12 24 -16 39 -3 15 -16 33 -29 39 -12 7
-26 18 -30 26 -5 7 -26 25 -48 39 -22 13 -37 29 -34 35 13 20 -17 41 -50 35
-26 -5 -34 -2 -45 18 -10 20 -35 32 -113 56 -55 18 -125 33 -157 34 -31 2 -63
7 -71 12 -16 10 -126 17 -549 33 -414 15 -673 30 -682 39 -13 13 181 35 427
48 150 7 181 13 201 35 11 12 31 27 46 35 19 10 28 22 28 38 0 13 7 43 15 66
19 54 19 140 1 182 -8 18 -17 44 -20 58 -6 31 -32 67 -41 58 -3 -3 -6 -48 -6
-100 0 -117 -20 -193 -64 -241 -32 -35 -36 -36 -82 -31 -26 4 -75 15 -108 26
-98 32 -161 39 -325 40 -119 1 -160 4 -178 16 -18 12 -27 12 -51 2 -36 -15
-67 -6 -106 30 -16 15 -44 36 -61 48 -17 12 -37 36 -44 54 -7 18 -24 47 -36
64 -13 18 -26 50 -30 71 -9 55 13 183 35 208 10 11 33 47 51 80 19 33 62 96
97 140 35 43 63 87 63 97 0 9 4 19 9 23 15 8 69 92 85 128 7 18 23 43 35 56
11 13 21 31 21 38 0 8 7 27 15 41 20 35 105 338 105 372 0 15 4 40 10 56 14
41 28 222 21 275 -6 41 -8 44 -35 44 -24 0 -31 -5 -38 -30 -12 -47 -40 -257
-34 -262 3 -3 -1 -15 -9 -27 -8 -11 -15 -33 -15 -48 0 -15 -4 -37 -9 -50 -5
-13 -24 -70 -42 -128 -28 -93 -75 -198 -122 -271 -8 -13 -18 -35 -22 -49 -4
-14 -16 -36 -26 -49 -11 -13 -19 -30 -19 -38 0 -8 -26 -45 -57 -82 -32 -38
-78 -100 -103 -139 -25 -38 -53 -72 -62 -75 -10 -3 -18 -17 -20 -38 -2 -25 -8
-35 -23 -37 -54 -8 -67 -15 -91 -51 -67 -101 -79 -258 -27 -349 19 -34 37 -49
87 -72 35 -17 70 -30 79 -30 8 0 24 -11 34 -23 10 -13 28 -29 41 -36 15 -8 22
-21 22 -41 0 -27 -1 -28 -32 -19 -17 5 -36 13 -42 19 -5 5 -19 10 -31 10 -12
0 -25 4 -31 9 -14 14 -196 81 -220 81 -11 0 -24 4 -30 8 -18 17 -238 44 -324
40 -92 -5 -150 -23 -217 -69 -24 -16 -48 -29 -53 -29 -4 0 -16 -13 -27 -29
-10 -15 -39 -60 -64 -98 -26 -39 -49 -79 -51 -89 -2 -12 -13 -20 -30 -22 -20
-2 -31 4 -45 25 -21 33 -25 38 -58 79 -16 21 -25 44 -25 68 0 29 -4 36 -20 36
-31 0 -40 38 -41 178 0 70 -5 188 -10 262 -18 245 -21 404 -9 530 6 69 15 188
20 265 5 77 13 156 19 175 6 19 16 76 22 125 6 50 19 133 30 187 10 53 19 114
19 135 0 21 5 44 11 50 5 5 12 34 14 64 15 179 27 353 35 489 10 183 36 389
51 407 6 7 12 39 13 70 1 55 14 128 56 323 10 47 21 108 25 135 4 28 11 58 17
68 5 10 14 42 19 70 6 29 13 66 16 82 3 17 17 68 30 115 14 47 29 101 33 121
4 20 17 52 28 71 12 20 22 41 22 48 0 7 11 34 25 62 14 27 25 55 25 61 0 7 9
29 20 50 11 20 20 47 20 59 0 39 83 197 105 200 11 2 24 13 30 25 16 32 75 84
120 104 49 23 162 19 300 -11z m6700 0 c-5 -8 -11 -8 -17 -2 -6 6 -7 16 -3 22
5 8 11 8 17 2 6 -6 7 -16 3 -22z m-8385 -40 c0 -5 -4 -10 -10 -10 -5 0 -10 5
-10 10 0 6 5 10 10 10 6 0 10 -4 10 -10z m7250 -60 c0 -5 -4 -10 -10 -10 -5 0
-10 5 -10 10 0 6 5 10 10 10 6 0 10 -4 10 -10z m1994 -21 c-3 -5 -10 -7 -15
-3 -5 3 -7 10 -3 15 3 5 10 7 15 3 5 -3 7 -10 3 -15z m-2054 -5 c0 -17 -22
-14 -28 4 -2 7 3 12 12 12 9 0 16 -7 16 -16z m-9260 -34 c0 -5 -7 -10 -16 -10
-8 0 -12 5 -9 10 3 6 10 10 16 10 5 0 9 -4 9 -10z m-2090 -76 c0 -17 -22 -14
-28 4 -2 7 3 12 12 12 9 0 16 -7 16 -16z m13330 -109 c0 -7 -6 -15 -12 -18
-19 -6 -38 3 -38 18 0 7 6 15 13 18 18 6 37 -3 37 -18z m-290 -20 c0 -8 -7
-15 -15 -15 -8 0 -15 7 -15 15 0 8 7 15 15 15 8 0 15 -7 15 -15z m-8225 -25
c3 -5 -1 -10 -9 -10 -9 0 -16 5 -16 10 0 6 4 10 9 10 6 0 13 -4 16 -10z
m-2420 -50 c3 -5 1 -10 -4 -10 -6 0 -11 5 -11 10 0 6 2 10 4 10 3 0 8 -4 11
-10z m-3111 -22 c23 -33 20 -65 -10 -95 -45 -45 -113 -14 -114 51 0 42 26 66
71 66 28 0 42 -6 53 -22z m3214 10 c-6 -18 -28 -21 -28 -4 0 9 7 16 16 16 9 0
14 -5 12 -12z m11742 2 c0 -5 -4 -10 -9 -10 -6 0 -13 5 -16 10 -3 6 1 10 9 10
9 0 16 -4 16 -10z m454 -9 c3 -5 -1 -11 -9 -15 -9 -3 -15 0 -15 9 0 16 16 20
24 6z m-12934 -46 c0 -8 -7 -15 -15 -15 -8 0 -15 7 -15 15 0 8 7 15 15 15 8 0
15 -7 15 -15z m-2040 -25 c0 -5 -4 -10 -10 -10 -5 0 -10 5 -10 10 0 6 5 10 10
10 6 0 10 -4 10 -10z m14910 0 c0 -5 -4 -10 -10 -10 -5 0 -10 5 -10 10 0 6 5
10 10 10 6 0 10 -4 10 -10z m280 0 c0 -5 -4 -10 -10 -10 -5 0 -10 5 -10 10 0
6 5 10 10 10 6 0 10 -4 10 -10z m-760 -70 c0 -5 -4 -10 -10 -10 -5 0 -10 5
-10 10 0 6 5 10 10 10 6 0 10 -4 10 -10z m563 -15 c1 -5 -6 -11 -15 -13 -11
-2 -18 3 -18 13 0 17 30 18 33 0z m-2373 -15 c0 -5 -7 -10 -15 -10 -8 0 -15 5
-15 10 0 6 7 10 15 10 8 0 15 -4 15 -10z m-11522 -33 c4 -20 -25 -34 -40 -19
-15 15 -1 44 19 40 10 -2 19 -11 21 -21z m3730 -8 c-2 -6 -8 -10 -13 -10 -5 0
-11 4 -13 10 -2 6 4 11 13 11 9 0 15 -5 13 -11z m8017 1 c3 -5 -1 -10 -9 -10
-9 0 -16 5 -16 10 0 6 4 10 9 10 6 0 13 -4 16 -10z m-8705 -10 c0 -5 -4 -10
-10 -10 -5 0 -10 5 -10 10 0 6 5 10 10 10 6 0 10 -4 10 -10z m-2150 -10 c0 -5
-4 -10 -10 -10 -5 0 -10 5 -10 10 0 6 5 10 10 10 6 0 10 -4 10 -10z m1048 -8
c2 -7 -3 -12 -12 -12 -9 0 -16 7 -16 16 0 17 22 14 28 -4z m1284 -7 c0 -5 -5
-11 -11 -13 -6 -2 -11 4 -11 13 0 9 5 15 11 13 6 -2 11 -8 11 -13z m-3812 -5
c0 -5 -4 -10 -9 -10 -6 0 -13 5 -16 10 -3 6 1 10 9 10 9 0 16 -4 16 -10z
m12920 -5 c0 -8 -7 -15 -15 -15 -8 0 -15 7 -15 15 0 8 7 15 15 15 8 0 15 -7
15 -15z m-13680 -45 c0 -5 -4 -10 -10 -10 -5 0 -10 5 -10 10 0 6 5 10 10 10 6
0 10 -4 10 -10z m13570 0 c0 -5 -7 -10 -16 -10 -8 0 -12 5 -9 10 3 6 10 10 16
10 5 0 9 -4 9 -10z m-8103 -72 c-3 -8 -6 -5 -6 6 -1 11 2 17 5 13 3 -3 4 -12
1 -19z m9561 10 c-6 -18 -28 -21 -28 -4 0 9 7 16 16 16 9 0 14 -5 12 -12z
m-15331 -32 c-4 -9 -11 -16 -17 -16 -11 0 -14 33 -3 44 11 10 26 -11 20 -28z
m-67 4 c0 -5 -4 -10 -10 -10 -5 0 -10 5 -10 10 0 6 5 10 10 10 6 0 10 -4 10
-10z m460 -30 c0 -5 -5 -10 -11 -10 -5 0 -7 5 -4 10 3 6 8 10 11 10 2 0 4 -4
4 -10z m13650 -41 c0 -5 -7 -9 -15 -9 -15 0 -20 12 -9 23 8 8 24 -1 24 -14z
m610 1 c0 -11 -4 -20 -9 -20 -14 0 -23 18 -16 30 10 17 25 11 25 -10z m-13400
0 c0 -5 -4 -10 -9 -10 -6 0 -13 5 -16 10 -3 6 1 10 9 10 9 0 16 -4 16 -10z
m12490 -116 c0 -17 -22 -14 -28 4 -2 7 3 12 12 12 9 0 16 -7 16 -16z m570 -34
c0 -5 -7 -10 -16 -10 -8 0 -12 5 -9 10 3 6 10 10 16 10 5 0 9 -4 9 -10z
m-13900 -4 c0 -11 -19 -15 -25 -6 -3 5 1 10 9 10 9 0 16 -2 16 -4z m1210 -26
c0 -5 -7 -10 -15 -10 -8 0 -15 5 -15 10 0 6 7 10 15 10 8 0 15 -4 15 -10z
m1050 -28 c30 -24 21 -68 -16 -82 -51 -20 -90 30 -60 75 20 30 45 32 76 7z
m9800 8 c0 -5 -4 -10 -10 -10 -5 0 -10 5 -10 10 0 6 5 10 10 10 6 0 10 -4 10
-10z m-10270 -20 c0 -5 -4 -10 -10 -10 -5 0 -10 5 -10 10 0 6 5 10 10 10 6 0
10 -4 10 -10z m231 -13 c-13 -13 -26 -3 -16 12 3 6 11 8 17 5 6 -4 6 -10 -1
-17z m11784 -27 c3 -5 -1 -10 -10 -10 -9 0 -13 5 -10 10 3 6 8 10 10 10 2 0 7
-4 10 -10z m-13301 -21 c-3 -5 -10 -7 -15 -3 -5 3 -7 10 -3 15 3 5 10 7 15 3
5 -3 7 -10 3 -15z m4196 -69 c0 -5 -4 -10 -10 -10 -5 0 -10 5 -10 10 0 6 5 10
10 10 6 0 10 -4 10 -10z m8770 -80 c0 -5 -4 -10 -10 -10 -5 0 -10 5 -10 10 0
6 5 10 10 10 6 0 10 -4 10 -10z m-10890 -21 c0 -5 -7 -9 -15 -9 -15 0 -20 12
-9 23 8 8 24 -1 24 -14z m-560 -15 c0 -8 -4 -12 -10 -9 -5 3 -10 10 -10 16 0
5 5 9 10 9 6 0 10 -7 10 -16z m-840 -9 c0 -8 -6 -15 -14 -15 -17 0 -28 14 -19
24 12 12 33 6 33 -9z m1105 -35 c3 -5 1 -10 -4 -10 -6 0 -11 5 -11 10 0 6 2
10 4 10 3 0 8 -4 11 -10z m12275 0 c0 -5 -4 -10 -10 -10 -5 0 -10 5 -10 10 0
6 5 10 10 10 6 0 10 -4 10 -10z m-10465 -50 c3 -5 -1 -10 -10 -10 -9 0 -13 5
-10 10 3 6 8 10 10 10 2 0 7 -4 10 -10z m9155 -36 c0 -9 -5 -14 -12 -12 -18 6
-21 28 -4 28 9 0 16 -7 16 -16z m1228 -26 c-6 -18 -28 -21 -28 -4 0 9 7 16 16
16 9 0 14 -5 12 -12z m-9728 -28 c0 -5 -7 -10 -15 -10 -8 0 -15 5 -15 10 0 6
7 10 15 10 8 0 15 -4 15 -10z m7080 0 c0 -5 -4 -10 -10 -10 -5 0 -10 5 -10 10
0 6 5 10 10 10 6 0 10 -4 10 -10z m3450 0 c0 -5 -2 -10 -4 -10 -3 0 -8 5 -11
10 -3 6 -1 10 4 10 6 0 11 -4 11 -10z m-14720 -40 c0 -5 -5 -10 -11 -10 -5 0
-7 5 -4 10 3 6 8 10 11 10 2 0 4 -4 4 -10z m11818 -2 c-6 -18 -28 -21 -28 -4
0 9 7 16 16 16 9 0 14 -5 12 -12z m2092 -4 c0 -9 -5 -14 -12 -12 -18 6 -21 28
-4 28 9 0 16 -7 16 -16z m-11893 -64 c10 -20 10 -29 -1 -45 -29 -43 -96 -22
-96 30 0 48 75 60 97 15z m-3230 -46 c-9 -9 -28 6 -21 18 4 6 10 6 17 -1 6 -6
8 -13 4 -17z m12743 -4 c0 -5 -2 -10 -4 -10 -3 0 -8 5 -11 10 -3 6 -1 10 4 10
6 0 11 -4 11 -10z m1570 -190 c0 -5 -4 -10 -10 -10 -5 0 -10 5 -10 10 0 6 5
10 10 10 6 0 10 -4 10 -10z m-9790 -20 c0 -5 -7 -10 -15 -10 -8 0 -15 5 -15
10 0 6 7 10 15 10 8 0 15 -4 15 -10z m-1500 -30 c0 -5 -8 -10 -17 -10 -15 0
-16 2 -3 10 19 12 20 12 20 0z m10690 -54 c0 -11 -19 -15 -25 -6 -3 5 1 10 9
10 9 0 16 -2 16 -4z m-210 -16 c0 -5 -4 -10 -10 -10 -5 0 -10 5 -10 10 0 6 5
10 10 10 6 0 10 -4 10 -10z m820 -40 c0 -5 -4 -10 -10 -10 -5 0 -10 5 -10 10
0 6 5 10 10 10 6 0 10 -4 10 -10z m-13550 -19 c0 -5 -7 -11 -15 -15 -9 -3 -15
0 -15 9 0 8 7 15 15 15 8 0 15 -4 15 -9z m384 -30 c10 -16 -5 -41 -25 -41 -14
0 -19 7 -19 25 0 18 5 25 19 25 11 0 22 -4 25 -9z m11746 -16 c0 -8 -7 -15
-15 -15 -8 0 -15 7 -15 15 0 8 7 15 15 15 8 0 15 -7 15 -15z m428 4 c-2 -6 -8
-10 -13 -10 -5 0 -11 4 -13 10 -2 6 4 11 13 11 9 0 15 -5 13 -11z m1952 7 c0
-3 -4 -8 -10 -11 -5 -3 -10 -1 -10 4 0 6 5 11 10 11 6 0 10 -2 10 -4z m990
-71 c16 -19 -3 -45 -32 -45 -27 0 -35 30 -13 46 24 18 30 17 45 -1z m-692 -79
c-4 -30 -44 -34 -53 -5 -5 16 -2 26 10 36 23 16 47 -1 43 -31z m-820 12 c-6
-18 -28 -21 -28 -4 0 9 7 16 16 16 9 0 14 -5 12 -12z m-2016 -23 c0 -5 -5 -11
-11 -13 -6 -2 -11 4 -11 13 0 9 5 15 11 13 6 -2 11 -8 11 -13z m1583 -15 c3
-5 1 -10 -4 -10 -6 0 -11 5 -11 10 0 6 2 10 4 10 3 0 8 -4 11 -10z m-8865 -25
c0 -8 -4 -15 -10 -15 -5 0 -10 7 -10 15 0 8 5 15 10 15 6 0 10 -7 10 -15z
m10215 -15 c-3 -5 -10 -10 -16 -10 -5 0 -9 5 -9 10 0 6 7 10 16 10 8 0 12 -4
9 -10z m-15768 -66 c-3 -3 -12 -4 -19 -1 -8 3 -5 6 6 6 11 1 17 -2 13 -5z
m14793 2 c0 -11 -19 -15 -25 -6 -3 5 1 10 9 10 9 0 16 -2 16 -4z m-70 -66 c0
-5 -4 -10 -10 -10 -5 0 -10 5 -10 10 0 6 5 10 10 10 6 0 10 -4 10 -10z m434
-41 c-8 -14 -34 -11 -34 4 0 8 3 17 7 20 9 9 34 -13 27 -24z m1336 1 c0 -5 -4
-10 -10 -10 -5 0 -10 5 -10 10 0 6 5 10 10 10 6 0 10 -4 10 -10z m-12550 -45
c0 -8 -7 -15 -15 -15 -8 0 -15 7 -15 15 0 8 7 15 15 15 8 0 15 -7 15 -15z
m320 -5 c0 -5 -4 -10 -10 -10 -5 0 -10 5 -10 10 0 6 5 10 10 10 6 0 10 -4 10
-10z m-3227 -15 c1 -5 -6 -11 -15 -13 -11 -2 -18 3 -18 13 0 17 30 18 33 0z
m3627 -30 c0 -8 -7 -15 -15 -15 -8 0 -15 7 -15 15 0 8 7 15 15 15 8 0 15 -7
15 -15z m8050 -90 c0 -8 -7 -15 -15 -15 -16 0 -20 12 -8 23 11 12 23 8 23 -8z
m570 -46 c0 -5 -4 -9 -10 -9 -5 0 -10 7 -10 16 0 8 5 12 10 9 6 -3 10 -10 10
-16z m-8762 -27 c2 -7 -3 -12 -12 -12 -9 0 -16 7 -16 16 0 17 22 14 28 -4z
m8805 3 c0 -6 -7 -11 -16 -13 -12 -3 -15 1 -11 13 7 17 25 17 27 0z m-11513
-25 c0 -5 -4 -10 -10 -10 -5 0 -10 5 -10 10 0 6 5 10 10 10 6 0 10 -4 10 -10z
m-1320 -35 c0 -8 -7 -15 -15 -15 -8 0 -15 7 -15 15 0 8 7 15 15 15 8 0 15 -7
15 -15z m13618 -13 c2 -7 -3 -12 -12 -12 -9 0 -16 7 -16 16 0 17 22 14 28 -4z
m-14148 -12 c0 -5 -4 -10 -9 -10 -6 0 -13 5 -16 10 -3 6 1 10 9 10 9 0 16 -4
16 -10z m3470 -10 c0 -5 -4 -10 -10 -10 -5 0 -10 5 -10 10 0 6 5 10 10 10 6 0
10 -4 10 -10z m-920 -60 c0 -5 -4 -10 -9 -10 -6 0 -13 5 -16 10 -3 6 1 10 9
10 9 0 16 -4 16 -10z m-2214 -67 c-10 -10 -19 5 -10 18 6 11 8 11 12 0 2 -7 1
-15 -2 -18z m124 -8 c0 -8 -7 -15 -15 -15 -8 0 -15 7 -15 15 0 8 7 15 15 15 8
0 15 -7 15 -15z m1780 -15 c0 -5 -4 -10 -10 -10 -5 0 -10 5 -10 10 0 6 5 10
10 10 6 0 10 -4 10 -10z m14010 -24 c0 -2 -7 -9 -15 -16 -12 -10 -15 -10 -15
4 0 9 7 16 15 16 8 0 15 -2 15 -4z m-2500 -26 c0 -5 -7 -10 -15 -10 -8 0 -15
5 -15 10 0 6 7 10 15 10 8 0 15 -4 15 -10z m1745 -10 c3 -5 -3 -10 -15 -10
-12 0 -18 5 -15 10 3 6 10 10 15 10 5 0 12 -4 15 -10z m-2745 -16 c0 -9 -5
-14 -12 -12 -18 6 -21 28 -4 28 9 0 16 -7 16 -16z m-12130 -29 c0 -8 -7 -15
-15 -15 -8 0 -15 7 -15 15 0 8 7 15 15 15 8 0 15 -7 15 -15z m12390 5 c0 -5
-4 -10 -10 -10 -5 0 -10 5 -10 10 0 6 5 10 10 10 6 0 10 -4 10 -10z m-970 -21
c19 -11 46 -32 60 -45 14 -13 49 -43 78 -65 31 -25 54 -51 58 -67 3 -15 15
-45 25 -68 59 -126 30 -416 -61 -609 -21 -44 -49 -105 -64 -136 -14 -31 -32
-59 -41 -63 -8 -3 -15 -16 -15 -29 0 -45 -227 -305 -281 -322 -11 -4 -19 -15
-19 -26 0 -12 -19 -31 -54 -54 -30 -19 -58 -39 -61 -45 -4 -6 -24 -19 -46 -31
-22 -11 -49 -29 -60 -40 -12 -12 -29 -19 -40 -16 -10 3 -29 -3 -41 -12 -38
-29 -101 -58 -143 -65 -22 -4 -58 -18 -80 -31 -60 -36 -188 -50 -308 -36 -132
15 -139 19 -117 62 6 10 15 38 19 61 5 24 18 68 29 98 11 30 32 96 47 145 15
50 33 107 41 128 8 20 14 51 14 68 0 16 6 42 14 57 7 15 21 56 30 92 15 62 27
104 76 267 11 40 25 98 30 130 6 35 16 62 26 68 65 40 79 53 82 77 2 16 11 30
23 33 10 4 19 13 19 22 0 8 16 29 35 46 19 17 35 36 35 43 0 7 16 25 34 39 19
15 44 42 55 60 11 19 33 41 50 50 17 8 31 24 31 33 0 20 48 55 134 97 31 15
56 31 56 35 0 4 24 14 53 20 28 7 57 16 62 20 47 34 164 39 215 9z m-10418
-114 c0 -5 -5 -11 -11 -13 -6 -2 -11 4 -11 13 0 9 5 15 11 13 6 -2 11 -8 11
-13z m478 -25 c0 -5 -4 -10 -10 -10 -5 0 -10 5 -10 10 0 6 5 10 10 10 6 0 10
-4 10 -10z m-1040 -20 c0 -5 -5 -10 -11 -10 -5 0 -7 5 -4 10 3 6 8 10 11 10 2
0 4 -4 4 -10z m4070 1 c0 -6 -4 -13 -10 -16 -5 -3 -10 1 -10 9 0 9 5 16 10 16
6 0 10 -4 10 -9z m-1080 -17 c0 -9 -5 -14 -12 -12 -18 6 -21 28 -4 28 9 0 16
-7 16 -16z m10620 -24 c0 -5 -4 -10 -10 -10 -5 0 -10 5 -10 10 0 6 5 10 10 10
6 0 10 -4 10 -10z m-9880 -10 c0 -5 -2 -10 -4 -10 -3 0 -8 5 -11 10 -3 6 -1
10 4 10 6 0 11 -4 11 -10z m9193 -5 c33 -24 2 -77 -37 -62 -19 7 -21 48 -4 65
15 15 19 15 41 -3z m-12606 -11 c-3 -3 -12 -4 -19 -1 -8 3 -5 6 6 6 11 1 17
-2 13 -5z m13268 -14 c3 -5 -1 -10 -10 -10 -9 0 -13 5 -10 10 3 6 8 10 10 10
2 0 7 -4 10 -10z m-50 -9 c7 -12 -12 -24 -25 -16 -11 7 -4 25 10 25 5 0 11 -4
15 -9z m648 -102 c-17 -17 -37 -1 -22 17 8 10 15 12 23 4 7 -7 7 -13 -1 -21z
m-333 -45 c0 -8 -7 -14 -15 -14 -15 0 -21 21 -9 33 10 9 24 -2 24 -19z m-9220
-4 c0 -5 -4 -10 -10 -10 -5 0 -10 5 -10 10 0 6 5 10 10 10 6 0 10 -4 10 -10z
m-1624 -37 c-10 -10 -19 5 -10 18 6 11 8 11 12 0 2 -7 1 -15 -2 -18z m-4012
-4 c-3 -5 -10 -7 -15 -3 -5 3 -7 10 -3 15 3 5 10 7 15 3 5 -3 7 -10 3 -15z
m2304 9 c-6 -18 -28 -21 -28 -4 0 9 7 16 16 16 9 0 14 -5 12 -12z m-1038 -38
c0 -5 -7 -10 -15 -10 -8 0 -15 5 -15 10 0 6 7 10 15 10 8 0 15 -4 15 -10z
m-80 -40 c0 -5 -4 -10 -10 -10 -5 0 -10 5 -10 10 0 6 5 10 10 10 6 0 10 -4 10
-10z m1425 -30 c4 -6 1 -18 -6 -26 -11 -13 -14 -13 -27 0 -8 8 -11 19 -8 25 9
14 33 14 41 1z m-1365 -30 c0 -11 -7 -20 -15 -20 -8 0 -15 9 -15 20 0 11 7 20
15 20 8 0 15 -9 15 -20z m395 -79 c3 -5 1 -12 -5 -16 -5 -3 -10 1 -10 9 0 18
6 21 15 7z m355 -20 c0 -17 -18 -21 -24 -6 -3 9 0 15 9 15 8 0 15 -4 15 -9z
m167 -17 c-3 -3 -12 -4 -19 -1 -8 3 -5 6 6 6 11 1 17 -2 13 -5z m-1302 -13 c7
-12 -12 -24 -25 -16 -11 7 -4 25 10 25 5 0 11 -4 15 -9z m11690 -1 c3 -5 1
-10 -4 -10 -6 0 -11 5 -11 10 0 6 2 10 4 10 3 0 8 -4 11 -10z m-9840 -29 c7
-12 -12 -24 -25 -16 -11 7 -4 25 10 25 5 0 11 -4 15 -9z m-2285 -86 c0 -8 -4
-15 -10 -15 -5 0 -10 7 -10 15 0 8 5 15 10 15 6 0 10 -7 10 -15z m14765 -5 c3
-5 -1 -10 -10 -10 -9 0 -13 5 -10 10 3 6 8 10 10 10 2 0 7 -4 10 -10z m-1090
-40 c-3 -5 -10 -10 -16 -10 -5 0 -9 5 -9 10 0 6 7 10 16 10 8 0 12 -4 9 -10z
m630 0 c-3 -5 -10 -10 -16 -10 -5 0 -9 5 -9 10 0 6 7 10 16 10 8 0 12 -4 9
-10z m1410 -65 c0 -25 -40 -33 -49 -10 -9 24 2 37 27 33 14 -2 22 -10 22 -23z
m-2655 -30 c0 -8 -7 -15 -15 -15 -16 0 -20 12 -8 23 11 12 23 8 23 -8z
m-12082 -53 c2 -7 -3 -12 -12 -12 -9 0 -16 7 -16 16 0 17 22 14 28 -4z m-448
-12 c0 -5 -4 -10 -10 -10 -5 0 -10 5 -10 10 0 6 5 10 10 10 6 0 10 -4 10 -10z
m14400 6 c0 -3 -4 -8 -10 -11 -5 -3 -10 -1 -10 4 0 6 5 11 10 11 6 0 10 -2 10
-4z m-11155 -15 c7 -12 -12 -24 -25 -16 -11 7 -4 25 10 25 5 0 11 -4 15 -9z
m8233 -12 c-2 -6 -8 -10 -13 -10 -5 0 -11 4 -13 10 -2 6 4 11 13 11 9 0 15 -5
13 -11z m2137 2 c7 -12 -12 -24 -25 -16 -11 7 -4 25 10 25 5 0 11 -4 15 -9z
m-14425 -21 c0 -5 -5 -12 -11 -16 -14 -8 -33 11 -25 25 7 11 36 4 36 -9z
m3643 -14 c6 -16 -16 -40 -26 -29 -4 3 -7 15 -7 25 0 21 25 24 33 4z m10512
-66 c3 -5 1 -10 -4 -10 -6 0 -11 5 -11 10 0 6 2 10 4 10 3 0 8 -4 11 -10z
m-13895 -21 c0 -5 -7 -9 -15 -9 -15 0 -20 12 -9 23 8 8 24 -1 24 -14z m742
-44 c0 -5 -5 -11 -11 -13 -6 -2 -11 4 -11 13 0 9 5 15 11 13 6 -2 11 -8 11
-13z m3948 -30 c0 -8 -4 -15 -10 -15 -5 0 -10 7 -10 15 0 8 5 15 10 15 6 0 10
-7 10 -15z m9660 -15 c0 -5 -4 -10 -10 -10 -5 0 -10 5 -10 10 0 6 5 10 10 10
6 0 10 -4 10 -10z m-11100 -20 c0 -5 -4 -10 -10 -10 -5 0 -10 5 -10 10 0 6 5
10 10 10 6 0 10 -4 10 -10z m-1070 -36 c0 -9 -5 -14 -12 -12 -18 6 -21 28 -4
28 9 0 16 -7 16 -16z m-390 -64 c0 -5 -4 -10 -10 -10 -5 0 -10 5 -10 10 0 6 5
10 10 10 6 0 10 -4 10 -10z m5120 -70 c34 -19 35 -19 8 -20 -15 0 -39 5 -55
11 -22 8 -24 12 -13 19 19 12 19 12 60 -10z m3127 -2 c-3 -8 -6 -5 -6 6 -1 11
2 17 5 13 3 -3 4 -12 1 -19z m-6497 -8 c0 -5 -4 -10 -10 -10 -5 0 -10 5 -10
10 0 6 5 10 10 10 6 0 10 -4 10 -10z m-2710 -40 c0 -5 -4 -10 -10 -10 -5 0
-10 5 -10 10 0 6 5 10 10 10 6 0 10 -4 10 -10z m11175 0 c3 -5 -3 -10 -15 -10
-12 0 -18 5 -15 10 3 6 10 10 15 10 5 0 12 -4 15 -10z m2325 -15 c0 -8 -7 -15
-15 -15 -8 0 -15 7 -15 15 0 8 7 15 15 15 8 0 15 -7 15 -15z m-12335 -27 c15
-15 37 -127 45 -228 5 -63 15 -133 23 -155 8 -22 18 -80 22 -130 4 -49 13 -97
20 -105 7 -8 16 -43 19 -78 4 -34 13 -81 21 -103 8 -22 17 -62 21 -89 4 -27
13 -55 20 -61 8 -6 14 -27 14 -47 0 -19 11 -54 24 -76 13 -23 26 -54 30 -71
10 -40 45 -116 63 -137 9 -10 13 -27 10 -39 -5 -17 5 -32 39 -65 24 -24 44
-47 44 -52 0 -14 -54 -60 -75 -64 -12 -2 -25 -18 -35 -43 -8 -22 -36 -62 -62
-89 -26 -28 -51 -67 -58 -90 -7 -23 -21 -59 -33 -81 -17 -35 -20 -59 -20 -192
1 -139 2 -155 23 -187 12 -20 25 -36 29 -36 10 0 61 61 61 74 0 6 -5 50 -10
97 -9 80 -8 92 15 163 33 100 68 169 100 194 14 11 25 26 25 33 0 8 23 34 51
59 28 25 71 64 95 88 24 23 47 42 52 42 5 0 43 33 85 73 72 68 82 85 78 129
-1 9 14 28 33 43 21 16 42 45 52 71 9 25 22 48 28 52 6 4 24 26 40 50 19 28
36 42 51 42 28 0 38 10 24 26 -8 9 -4 16 13 27 13 8 51 32 86 54 55 36 69 40
105 36 23 -3 46 -9 51 -14 15 -13 -14 -69 -35 -69 -11 0 -19 -4 -19 -9 0 -5
-11 -22 -24 -38 -13 -15 -29 -45 -35 -66 -7 -20 -35 -64 -62 -96 -27 -32 -49
-68 -49 -78 0 -11 -9 -28 -20 -38 -11 -10 -20 -28 -20 -39 0 -12 -7 -43 -15
-70 -9 -31 -15 -91 -15 -160 0 -75 -7 -141 -21 -201 -11 -49 -22 -112 -26
-140 -3 -29 -13 -57 -24 -67 -10 -10 -21 -35 -25 -55 -9 -50 -120 -280 -153
-318 -10 -11 -28 -40 -40 -65 -37 -73 -82 -112 -138 -117 -32 -4 -57 -14 -74
-30 -16 -15 -32 -21 -43 -17 -10 4 -24 0 -35 -10 -10 -9 -42 -23 -72 -32 -30
-9 -74 -27 -99 -40 -25 -13 -50 -24 -56 -24 -6 0 -19 -9 -29 -20 -10 -11 -27
-20 -38 -20 -10 0 -32 -11 -49 -25 -16 -14 -38 -25 -48 -25 -10 0 -25 -11 -34
-25 -11 -17 -26 -25 -46 -25 -39 0 -118 39 -126 62 -6 19 -37 40 -64 42 -28 3
-90 40 -90 53 0 8 -8 16 -17 20 -10 3 -30 15 -46 25 -21 15 -26 25 -21 43 6
25 -9 40 -41 40 -13 0 -26 13 -39 40 -10 22 -27 51 -37 64 -11 13 -19 34 -19
46 0 14 -7 25 -20 28 -11 3 -24 16 -29 30 -6 14 -20 31 -31 37 -15 8 -20 18
-16 32 7 29 -107 158 -139 158 -13 0 -28 7 -35 15 -7 8 -21 15 -32 15 -10 0
-29 11 -41 24 -12 12 -40 26 -62 30 -42 8 -110 39 -120 56 -3 5 -20 10 -37 10
-16 0 -41 9 -55 20 -14 11 -34 20 -45 20 -18 0 -105 34 -204 81 -22 10 -47 19
-54 19 -20 0 -80 61 -80 81 0 27 39 49 85 49 23 0 88 -16 146 -35 57 -20 128
-42 157 -50 29 -7 58 -18 65 -23 7 -6 30 -13 52 -17 22 -4 65 -15 95 -25 241
-78 316 -88 369 -49 26 19 28 25 23 67 -2 26 -12 56 -22 67 -10 11 -20 29 -22
39 -1 11 -15 23 -30 27 -35 9 -115 76 -122 101 -3 14 -10 18 -24 14 -22 -7
-78 44 -112 102 -16 26 -26 32 -53 32 -28 0 -37 6 -53 35 -14 26 -29 38 -56
46 -22 6 -38 16 -38 25 0 8 -11 19 -24 24 -14 5 -46 29 -72 54 -26 26 -53 46
-60 46 -8 0 -23 13 -34 28 -11 15 -38 38 -59 52 -93 57 -82 160 17 160 21 0
50 -16 98 -55 38 -31 78 -58 90 -61 12 -3 26 -20 33 -40 11 -30 17 -34 46 -34
38 0 97 -43 89 -65 -4 -9 12 -19 53 -31 58 -18 75 -29 137 -91 18 -18 39 -33
47 -33 9 0 33 -15 55 -32 89 -74 200 -138 239 -138 37 0 72 19 84 47 14 31 14
130 0 139 -6 3 -19 25 -29 49 -10 24 -23 46 -29 50 -6 3 -18 22 -26 41 -8 19
-19 34 -25 34 -6 0 -19 19 -30 43 -30 64 -79 150 -99 172 -11 11 -30 43 -44
70 -14 28 -40 70 -56 95 -17 25 -31 56 -31 68 0 16 -7 26 -20 29 -12 3 -30 23
-41 44 -11 22 -24 39 -29 39 -5 0 -13 12 -16 28 -4 15 -17 42 -31 59 -31 42
-53 115 -53 175 0 57 21 73 82 65 48 -6 52 -10 53 -45 0 -17 8 -30 22 -37 12
-7 32 -23 43 -38 30 -38 97 -147 114 -184 8 -18 20 -33 26 -33 6 0 25 -30 42
-67 18 -38 42 -81 54 -98 12 -16 25 -45 29 -63 4 -18 15 -37 25 -42 10 -5 20
-20 24 -34 3 -13 17 -31 31 -40 14 -9 25 -25 25 -35 0 -11 4 -21 9 -23 6 -1
31 -30 56 -62 25 -33 59 -68 76 -78 16 -10 29 -25 29 -33 0 -8 15 -24 33 -35
60 -37 157 -18 157 31 0 10 9 28 20 39 20 20 20 23 6 78 -9 31 -20 109 -26
172 -6 63 -17 140 -25 170 -7 30 -16 91 -19 135 -3 44 -13 107 -22 140 -23 84
-30 440 -10 452 16 9 123 10 131 1z m10021 -35 c-10 -10 -19 5 -10 18 6 11 8
11 12 0 2 -7 1 -15 -2 -18z m1072 6 c-2 -6 -8 -10 -13 -10 -5 0 -11 4 -13 10
-2 6 4 11 13 11 9 0 15 -5 13 -11z m2072 -14 c0 -8 -7 -15 -15 -15 -16 0 -20
12 -8 23 11 12 23 8 23 -8z m-13490 -15 c0 -21 -15 -27 -25 -10 -7 12 2 30 16
30 5 0 9 -9 9 -20z m11836 -11 c3 -6 2 -15 -2 -19 -12 -12 -38 5 -30 19 9 14
23 14 32 0z m-7073 -30 c16 -12 57 -29 90 -39 34 -10 87 -27 117 -39 30 -11
64 -21 76 -21 11 0 25 -5 31 -11 12 -12 160 -52 269 -73 39 -7 77 -17 84 -21
6 -4 55 -13 108 -20 53 -7 129 -18 167 -24 169 -26 412 -44 700 -50 262 -6
316 -10 350 -24 45 -20 55 -32 48 -57 -6 -21 -33 -16 -33 5 0 24 -39 28 -78 8
-29 -14 -62 -18 -152 -19 -217 -2 -695 16 -735 27 -22 6 -90 17 -151 24 -68 8
-126 21 -150 33 -30 15 -52 18 -91 15 -40 -4 -74 1 -139 22 -48 14 -98 34
-111 43 -21 13 -26 13 -33 2 -6 -10 -12 -11 -22 -3 -7 6 -26 13 -43 16 -37 6
-160 52 -197 72 -14 8 -37 15 -50 15 -13 0 -40 9 -61 20 -20 11 -43 20 -49 20
-23 1 -111 87 -103 100 12 19 124 4 158 -21z m-297 6 c-25 -19 -36 -19 -36 0
0 10 10 15 28 15 26 -1 26 -1 8 -15z m-2651 -24 c7 -12 -12 -24 -25 -16 -11 7
-4 25 10 25 5 0 11 -4 15 -9z m2600 -64 l0 -52 36 -1 c58 -2 86 -27 94 -86 4
-28 16 -65 26 -82 10 -17 23 -54 29 -83 6 -28 17 -54 25 -57 7 -2 16 -18 20
-35 4 -17 15 -33 26 -36 10 -4 19 -15 19 -26 0 -12 10 -23 25 -29 14 -5 28
-18 32 -27 7 -20 42 -53 55 -53 5 0 13 -11 18 -25 5 -14 13 -24 17 -23 5 2 34
-16 65 -40 31 -23 60 -42 63 -42 3 0 36 -17 73 -38 85 -48 268 -107 397 -128
58 -10 157 -17 235 -17 152 0 397 29 421 49 8 8 35 16 59 19 24 3 49 10 54 15
6 4 35 18 64 29 99 39 242 113 251 130 5 9 42 39 82 66 86 58 114 84 114 105
0 23 32 24 45 1 13 -25 50 -28 50 -5 0 9 11 27 25 40 l26 24 -20 38 -19 37 26
13 c31 14 36 8 64 -73 33 -94 17 -222 -32 -274 -18 -18 -27 -37 -24 -45 4 -10
-12 -36 -39 -68 -25 -30 -49 -66 -52 -81 -8 -29 -32 -47 -52 -40 -6 2 -19 -10
-28 -28 -19 -35 -56 -72 -97 -94 -16 -9 -28 -22 -28 -30 0 -8 -17 -23 -37 -34
-21 -11 -57 -37 -81 -59 -30 -27 -50 -38 -65 -35 -13 3 -38 -6 -60 -21 -56
-38 -130 -76 -148 -76 -9 0 -37 -11 -62 -25 -26 -13 -53 -22 -60 -19 -7 2 -42
-2 -78 -11 -137 -32 -269 -11 -327 52 -49 54 -62 75 -62 99 0 18 8 22 57 28
55 6 83 19 83 37 0 12 -89 36 -185 49 -44 7 -116 20 -160 30 -44 10 -100 21
-125 25 -54 7 -100 21 -156 46 -56 26 -130 35 -149 19 -13 -11 -12 -16 6 -41
21 -30 86 -69 113 -69 22 0 35 -30 26 -61 -13 -43 -19 -50 -38 -40 -12 6 -24
4 -41 -10 -33 -27 -113 -26 -158 2 -18 12 -40 18 -48 15 -9 -3 -25 4 -37 17
-12 12 -40 31 -63 42 -23 12 -41 28 -43 40 -2 11 -21 38 -42 60 -45 46 -128
170 -136 202 -3 11 -14 23 -23 26 -12 3 -25 27 -38 68 -12 35 -37 116 -57 179
-34 107 -38 127 -43 275 -6 160 -6 160 19 190 14 17 28 47 32 67 6 33 23 52
36 41 2 -2 5 -28 5 -56z m-2465 -11 c0 -8 -4 -17 -9 -21 -12 -7 -24 12 -16 25
9 15 25 12 25 -4z m9800 4 c0 -5 -5 -10 -11 -10 -5 0 -7 5 -4 10 3 6 8 10 11
10 2 0 4 -4 4 -10z m-12729 -25 c-1 -15 -24 -12 -29 3 -3 9 2 13 12 10 10 -1
17 -7 17 -13z m99 -40 c0 -8 -7 -15 -15 -15 -8 0 -15 7 -15 15 0 8 7 15 15 15
8 0 15 -7 15 -15z m-560 -30 c0 -8 -4 -15 -9 -15 -13 0 -22 16 -14 24 11 11
23 6 23 -9z m11005 6 c3 -5 1 -12 -5 -16 -5 -3 -10 1 -10 9 0 18 6 21 15 7z
m1280 -1 c-3 -5 -10 -10 -16 -10 -5 0 -9 5 -9 10 0 6 7 10 16 10 8 0 12 -4 9
-10z m-7355 -19 c0 -14 -18 -23 -30 -16 -6 4 -8 11 -5 16 8 12 35 12 35 0z
m5925 -1 c3 -5 1 -10 -4 -10 -6 0 -11 5 -11 10 0 6 2 10 4 10 3 0 8 -4 11 -10z
m-4683 -19 c55 -33 511 -171 613 -186 22 -3 56 -10 75 -15 62 -16 262 -49 400
-65 210 -25 319 -32 535 -34 110 -1 202 -5 205 -8 3 -3 -3 -10 -13 -17 -10 -6
-44 -30 -75 -53 -44 -33 -66 -43 -95 -43 -33 0 -39 -4 -48 -30 -12 -33 -80
-71 -164 -91 -27 -6 -59 -16 -70 -20 -11 -5 -67 -18 -125 -30 -329 -65 -690
-13 -938 135 -108 63 -262 215 -262 257 0 15 -4 29 -9 31 -16 6 -81 136 -81
163 0 30 8 31 52 6z m-5666 -48 c-10 -10 -19 5 -10 18 6 11 8 11 12 0 2 -7 1
-15 -2 -18z m-266 -13 c0 -13 -7 -20 -19 -20 -22 0 -35 15 -26 30 12 19 45 11
45 -10z m11400 0 c0 -5 -7 -10 -15 -10 -8 0 -15 5 -15 10 0 6 7 10 15 10 8 0
15 -4 15 -10z m148 -23 c2 -12 -3 -17 -17 -17 -12 0 -21 6 -21 13 0 31 32 34
38 4z m-1548 -2 c0 -8 -7 -15 -15 -15 -16 0 -20 12 -8 23 11 12 23 8 23 -8z
m-8820 -9 c0 -11 -19 -15 -25 -6 -3 5 1 10 9 10 9 0 16 -2 16 -4z m955 -26
c-5 -8 -11 -8 -17 -2 -6 6 -7 16 -3 22 5 8 11 8 17 2 6 -6 7 -16 3 -22z
m12550 -30 c3 -5 -1 -10 -10 -10 -9 0 -13 5 -10 10 3 6 8 10 10 10 2 0 7 -4
10 -10z m-12285 -15 c0 -8 -7 -15 -16 -15 -14 0 -14 3 -4 15 7 8 14 15 16 15
2 0 4 -7 4 -15z m9787 9 c-3 -3 -12 -4 -19 -1 -8 3 -5 6 6 6 11 1 17 -2 13 -5z
m1243 -10 c0 -9 -5 -14 -12 -12 -18 6 -21 28 -4 28 9 0 16 -7 16 -16z m-110
-4 c0 -5 -4 -10 -10 -10 -5 0 -10 5 -10 10 0 6 5 10 10 10 6 0 10 -4 10 -10z
m-9090 -16 c0 -8 -4 -12 -10 -9 -5 3 -10 10 -10 16 0 5 5 9 10 9 6 0 10 -7 10
-16z m-2500 -102 c0 -15 -2 -15 -10 -2 -13 20 -13 33 0 25 6 -3 10 -14 10 -23z
m12450 -2 c0 -5 -4 -10 -10 -10 -5 0 -10 5 -10 10 0 6 5 10 10 10 6 0 10 -4
10 -10z m-11180 -16 c0 -8 -4 -12 -10 -9 -5 3 -10 10 -10 16 0 5 5 9 10 9 6 0
10 -7 10 -16z m-2853 -20 c-9 -9 -28 6 -21 18 4 6 10 6 17 -1 6 -6 8 -13 4
-17z m971 -36 c-2 -15 -10 -23 -23 -23 -13 0 -21 8 -23 23 -3 18 1 22 23 22
22 0 26 -4 23 -22z m3631 8 c9 -10 8 -16 -4 -26 -19 -16 -41 1 -32 24 8 20 21
20 36 2z m-1259 -46 c0 -5 -5 -10 -11 -10 -5 0 -7 5 -4 10 3 6 8 10 11 10 2 0
4 -4 4 -10z m-3560 -20 c0 -5 -7 -10 -15 -10 -8 0 -15 5 -15 10 0 6 7 10 15
10 8 0 15 -4 15 -10z m3810 -30 c0 -5 -4 -10 -10 -10 -5 0 -10 5 -10 10 0 6 5
10 10 10 6 0 10 -4 10 -10z m8155 0 c3 -5 -1 -10 -10 -10 -9 0 -13 5 -10 10 3
6 8 10 10 10 2 0 7 -4 10 -10z m-587 -42 c-6 -18 -28 -21 -28 -4 0 9 7 16 16
16 9 0 14 -5 12 -12z m-10978 -93 c0 -8 -9 -15 -20 -15 -20 0 -26 11 -13 23
12 13 33 7 33 -8z m2810 0 c0 -8 -7 -15 -15 -15 -8 0 -15 7 -15 15 0 8 7 15
15 15 8 0 15 -7 15 -15z m730 11 c0 -3 -4 -8 -10 -11 -5 -3 -10 -1 -10 4 0 6
5 11 10 11 6 0 10 -2 10 -4z m-1000 -41 c0 -7 -7 -18 -15 -25 -13 -11 -15 -7
-15 25 0 32 2 36 15 25 8 -7 15 -18 15 -25z m-515 -15 c-3 -5 -13 -10 -21 -10
-8 0 -14 5 -14 10 0 6 9 10 21 10 11 0 17 -4 14 -10z m10520 -30 c3 -5 1 -10
-4 -10 -6 0 -11 5 -11 10 0 6 2 10 4 10 3 0 8 -4 11 -10z m655 -4 c0 -3 -4 -8
-10 -11 -5 -3 -10 -1 -10 4 0 6 5 11 10 11 6 0 10 -2 10 -4z m-1425 -26 c0 -8
-8 -16 -17 -18 -13 -2 -18 3 -18 18 0 15 5 20 18 18 9 -2 17 -10 17 -18z
m-8440 -10 c3 -6 -1 -13 -10 -16 -19 -8 -30 0 -20 15 8 14 22 14 30 1z m737
-22 c-9 -9 -15 -9 -24 0 -9 9 -7 12 12 12 19 0 21 -3 12 -12z m7858 -38 c0 -5
-2 -10 -4 -10 -3 0 -8 5 -11 10 -3 6 -1 10 4 10 6 0 11 -4 11 -10z m1930 -4
c0 -3 -4 -8 -10 -11 -5 -3 -10 -1 -10 4 0 6 5 11 10 11 6 0 10 -2 10 -4z
m-12070 -51 c0 -8 -6 -15 -14 -15 -17 0 -28 14 -19 24 12 12 33 6 33 -9z
m12640 -20 c0 -8 -4 -15 -10 -15 -5 0 -10 7 -10 15 0 8 5 15 10 15 6 0 10 -7
10 -15z m-3800 -21 c0 -8 -4 -12 -10 -9 -5 3 -10 10 -10 16 0 5 5 9 10 9 6 0
10 -7 10 -16z m-7039 -47 c-13 -13 -26 -3 -16 12 3 6 11 8 17 5 6 -4 6 -10 -1
-17z m-4171 -23 c0 -8 -4 -14 -10 -14 -5 0 -10 9 -10 21 0 11 5 17 10 14 6 -3
10 -13 10 -21z m1120 -10 c0 -16 -2 -16 -23 -8 -9 3 -13 13 -10 25 4 15 8 17
19 8 8 -6 14 -18 14 -25z m2958 -16 c-3 -7 -11 -13 -18 -13 -7 0 -15 6 -17 13
-3 7 4 12 17 12 13 0 20 -5 18 -12z m580 -40 c-6 -18 -28 -21 -28 -4 0 9 7 16
16 16 9 0 14 -5 12 -12z m-4628 -8 c0 -5 -4 -10 -10 -10 -5 0 -10 5 -10 10 0
6 5 10 10 10 6 0 10 -4 10 -10z m3530 -55 c0 -8 -4 -15 -10 -15 -5 0 -10 7
-10 15 0 8 5 15 10 15 6 0 10 -7 10 -15z m-735 -45 c0 -13 -6 -25 -12 -27 -9
-3 -13 6 -13 27 0 21 4 30 13 28 6 -3 12 -15 12 -28z m-2525 -30 c0 -5 -4 -10
-10 -10 -5 0 -10 5 -10 10 0 6 5 10 10 10 6 0 10 -4 10 -10z m4870 -130 c0 -5
-5 -10 -11 -10 -5 0 -7 5 -4 10 3 6 8 10 11 10 2 0 4 -4 4 -10z m9490 -8 c0
-13 -12 -22 -22 -16 -10 6 -1 24 13 24 5 0 9 -4 9 -8z m-854 -29 c-10 -10 -19
5 -10 18 6 11 8 11 12 0 2 -7 1 -15 -2 -18z m-13018 -9 c27 -17 21 -34 -13
-34 -39 0 -55 11 -55 37 0 21 3 23 23 18 12 -4 32 -14 45 -21z m4823 -17 c-13
-13 -26 -3 -16 12 3 6 11 8 17 5 6 -4 6 -10 -1 -17z m-1891 3 c0 -5 -4 -10
-10 -10 -5 0 -10 5 -10 10 0 6 5 10 10 10 6 0 10 -4 10 -10z m11292 -25 c0 -5
-5 -11 -11 -13 -6 -2 -11 4 -11 13 0 9 5 15 11 13 6 -2 11 -8 11 -13z m-14972
-55 c0 -5 -7 -10 -16 -10 -8 0 -12 5 -9 10 3 6 10 10 16 10 5 0 9 -4 9 -10z
m9760 -15 c0 -8 -4 -15 -10 -15 -5 0 -10 7 -10 15 0 8 5 15 10 15 6 0 10 -7
10 -15z m1150 -16 c0 -5 -7 -9 -15 -9 -15 0 -20 12 -9 23 8 8 24 -1 24 -14z
m-5695 2 c3 -5 1 -12 -5 -16 -5 -3 -10 1 -10 9 0 18 6 21 15 7z m6955 -32 c0
-5 -4 -9 -10 -9 -5 0 -10 7 -10 16 0 8 5 12 10 9 6 -3 10 -10 10 -16z m2870
-4 c0 -8 -7 -15 -15 -15 -16 0 -20 12 -8 23 11 12 23 8 23 -8z m-3050 -5 c0
-5 -7 -10 -16 -10 -8 0 -12 5 -9 10 3 6 10 10 16 10 5 0 9 -4 9 -10z m-8710
-10 c0 -5 -7 -10 -15 -10 -8 0 -15 5 -15 10 0 6 7 10 15 10 8 0 15 -4 15 -10z
m9435 1 c7 -12 -12 -24 -25 -16 -11 7 -4 25 10 25 5 0 11 -4 15 -9z m-7215
-11 c0 -5 -4 -10 -10 -10 -5 0 -10 5 -10 10 0 6 5 10 10 10 6 0 10 -4 10 -10z
m340 -25 c0 -8 -4 -15 -10 -15 -5 0 -10 7 -10 15 0 8 5 15 10 15 6 0 10 -7 10
-15z m4560 -65 c0 -5 -4 -10 -10 -10 -5 0 -10 5 -10 10 0 6 5 10 10 10 6 0 10
-4 10 -10z m4460 -5 c0 -8 -7 -15 -15 -15 -8 0 -15 7 -15 15 0 8 7 15 15 15 8
0 15 -7 15 -15z m-11195 -45 c3 -5 1 -10 -4 -10 -6 0 -11 5 -11 10 0 6 2 10 4
10 3 0 8 -4 11 -10z m1470 0 c3 -5 -1 -10 -10 -10 -9 0 -13 5 -10 10 3 6 8 10
10 10 2 0 7 -4 10 -10z m3435 -30 c0 -22 -7 -57 -15 -77 -8 -19 -15 -59 -15
-87 -1 -28 -5 -69 -10 -91 -27 -118 -31 -149 -31 -243 0 -110 8 -132 46 -132
12 0 36 -5 53 -11 28 -10 31 -13 21 -32 -6 -12 -22 -33 -35 -47 -14 -14 -45
-47 -70 -74 -36 -39 -48 -46 -55 -35 -8 11 -17 6 -44 -24 -25 -29 -43 -40 -74
-44 -26 -4 -38 -10 -35 -18 3 -8 -27 -28 -78 -54 -82 -41 -109 -50 -283 -97
-49 -13 -98 -28 -108 -34 -50 -29 -601 -31 -682 -2 -16 6 -61 17 -100 26 -173
38 -212 49 -247 72 -21 13 -42 24 -48 24 -28 0 -90 42 -90 60 0 11 -4 20 -8
20 -5 0 -29 20 -54 44 -67 63 -86 157 -58 281 10 47 22 68 52 97 21 21 38 47
38 57 0 11 6 23 13 28 6 4 120 8 252 9 197 0 245 3 270 16 17 8 57 16 89 17
58 2 102 9 161 29 17 6 57 17 90 25 124 32 152 40 245 74 52 19 109 37 125 40
17 3 35 9 40 13 6 5 60 24 120 44 61 20 122 43 137 51 14 8 33 12 42 9 8 -3
32 3 53 14 21 12 61 28 88 36 28 8 75 24 105 35 30 11 65 20 78 20 19 1 22 -4
22 -39z m5060 -10 c0 -5 -2 -10 -4 -10 -3 0 -8 5 -11 10 -3 6 -1 10 4 10 6 0
11 -4 11 -10z m-2780 -20 c0 -5 -4 -10 -9 -10 -6 0 -13 5 -16 10 -3 6 1 10 9
10 9 0 16 -4 16 -10z m4000 1 c0 -6 -4 -13 -10 -16 -5 -3 -10 1 -10 9 0 9 5
16 10 16 6 0 10 -4 10 -9z m-1690 -36 c0 -8 -4 -15 -10 -15 -5 0 -10 7 -10 15
0 8 5 15 10 15 6 0 10 -7 10 -15z m-9710 -65 c0 -5 -4 -10 -10 -10 -5 0 -10 5
-10 10 0 6 5 10 10 10 6 0 10 -4 10 -10z m340 -45 c0 -8 -4 -15 -9 -15 -13 0
-22 16 -14 24 11 11 23 6 23 -9z m-600 -5 c0 -5 -7 -10 -15 -10 -8 0 -15 5
-15 10 0 6 7 10 15 10 8 0 15 -4 15 -10z m9210 -40 c0 -5 -2 -10 -4 -10 -3 0
-8 5 -11 10 -3 6 -1 10 4 10 6 0 11 -4 11 -10z m1067 -32 c-3 -8 -6 -5 -6 6
-1 11 2 17 5 13 3 -3 4 -12 1 -19z m-10827 -16 c0 -13 -12 -22 -22 -16 -10 6
-1 24 13 24 5 0 9 -4 9 -8z m1360 -43 c0 -5 -7 -9 -15 -9 -15 0 -20 12 -9 23
8 8 24 -1 24 -14z m7057 -15 c-3 -3 -12 -4 -19 -1 -8 3 -5 6 6 6 11 1 17 -2
13 -5z m-7617 -14 c0 -5 -4 -10 -10 -10 -5 0 -10 5 -10 10 0 6 5 10 10 10 6 0
10 -4 10 -10z m11008 -33 c4 -20 -25 -34 -40 -19 -15 15 -1 44 19 40 10 -2 19
-11 21 -21z m223 -47 c24 -14 24 -32 -1 -55 -19 -17 -21 -17 -40 0 -23 21 -25
36 -8 53 15 15 24 15 49 2z m-14144 -46 c-3 -3 -12 -4 -19 -1 -8 3 -5 6 6 6
11 1 17 -2 13 -5z m2453 -9 c0 -8 -7 -15 -15 -15 -16 0 -20 12 -8 23 11 12 23
8 23 -8z m1097 -11 c-9 -9 -28 6 -21 18 4 6 10 6 17 -1 6 -6 8 -13 4 -17z
m5365 -6 c-9 -9 -12 -7 -12 12 0 19 3 21 12 12 9 -9 9 -15 0 -24z m618 -38 c0
-5 -4 -10 -10 -10 -5 0 -10 5 -10 10 0 6 5 10 10 10 6 0 10 -4 10 -10z m3598
-31 c-2 -6 -8 -10 -13 -10 -5 0 -11 4 -13 10 -2 6 4 11 13 11 9 0 15 -5 13
-11z m-9448 -25 c0 -8 -5 -12 -10 -9 -6 4 -8 11 -5 16 9 14 15 11 15 -7z
m-3500 -4 c0 -5 -5 -10 -11 -10 -5 0 -7 5 -4 10 3 6 8 10 11 10 2 0 4 -4 4
-10z m9340 -46 c0 -9 -5 -14 -12 -12 -18 6 -21 28 -4 28 9 0 16 -7 16 -16z
m-360 -14 c0 -5 -4 -10 -10 -10 -5 0 -10 5 -10 10 0 6 5 10 10 10 6 0 10 -4
10 -10z m-6263 -46 c-9 -9 -28 6 -21 18 4 6 10 6 17 -1 6 -6 8 -13 4 -17z
m248 -19 c0 -10 -5 -20 -11 -22 -13 -4 -27 24 -18 38 9 15 29 4 29 -16z m9035
9 c0 -8 -4 -12 -10 -9 -5 3 -10 10 -10 16 0 5 5 9 10 9 6 0 10 -7 10 -16z
m-2390 -32 c0 -13 -12 -22 -22 -16 -10 6 -1 24 13 24 5 0 9 -4 9 -8z m860 -42
c0 -5 -7 -10 -16 -10 -8 0 -12 5 -9 10 3 6 10 10 16 10 5 0 9 -4 9 -10z
m-8174 -21 c10 -17 -13 -36 -27 -22 -12 12 -4 33 11 33 5 0 12 -5 16 -11z
m8124 1 c0 -5 -4 -10 -10 -10 -5 0 -10 5 -10 10 0 6 5 10 10 10 6 0 10 -4 10
-10z m-830 -15 c0 -8 -4 -15 -9 -15 -13 0 -22 16 -14 24 11 11 23 6 23 -9z
m1621 -18 c-13 -13 -26 -3 -16 12 3 6 11 8 17 5 6 -4 6 -10 -1 -17z m-7711
-12 c0 -8 -7 -15 -15 -15 -8 0 -15 7 -15 15 0 8 7 15 15 15 8 0 15 -7 15 -15z
m-350 -30 c0 -8 -4 -15 -10 -15 -5 0 -10 7 -10 15 0 8 5 15 10 15 6 0 10 -7
10 -15z m8998 -59 c2 -10 0 -22 -5 -27 -16 -16 -43 2 -43 28 0 20 4 24 22 21
13 -2 24 -11 26 -22z m-11368 -7 c0 -5 -4 -9 -10 -9 -5 0 -10 7 -10 16 0 8 5
12 10 9 6 -3 10 -10 10 -16z m12755 1 c3 -5 -1 -10 -10 -10 -9 0 -13 5 -10 10
3 6 8 10 10 10 2 0 7 -4 10 -10z m-1525 -60 c0 -5 -4 -10 -10 -10 -5 0 -10 5
-10 10 0 6 5 10 10 10 6 0 10 -4 10 -10z m-885 -19 c3 -5 1 -12 -5 -16 -5 -3
-10 1 -10 9 0 18 6 21 15 7z m-268 -23 c-3 -8 -6 -5 -6 6 -1 11 2 17 5 13 3
-3 4 -12 1 -19z m1431 -102 c5 -24 -10 -38 -31 -30 -17 6 -23 35 -10 48 12 12
38 1 41 -18z m-9788 4 c0 -5 -4 -10 -10 -10 -5 0 -10 5 -10 10 0 6 5 10 10 10
6 0 10 -4 10 -10z m9700 -370 c0 -5 -4 -10 -10 -10 -5 0 -10 5 -10 10 0 6 5
10 10 10 6 0 10 -4 10 -10z m610 -51 c0 -10 -7 -19 -15 -19 -15 0 -21 31 -9
43 11 10 24 -3 24 -24z m-553 -35 c3 -8 -1 -22 -9 -30 -12 -12 -17 -12 -33 -1
-23 17 -14 47 15 47 11 0 23 -7 27 -16z m-637 -40 c0 -8 -9 -14 -20 -14 -19 0
-27 19 -14 33 10 9 34 -4 34 -19z m378 -66 c-6 -18 -28 -21 -28 -4 0 9 7 16
16 16 9 0 14 -5 12 -12z m-748 -58 c0 -5 -4 -10 -10 -10 -5 0 -10 5 -10 10 0
6 5 10 10 10 6 0 10 -4 10 -10z m1542 -6 c12 -11 -5 -44 -23 -44 -14 0 -19 7
-19 25 0 18 5 25 18 25 10 0 21 -3 24 -6z m-2252 -30 c0 -8 -4 -12 -10 -9 -5
3 -10 10 -10 16 0 5 5 9 10 9 6 0 10 -7 10 -16z m2183 -89 c1 -5 -6 -11 -15
-13 -11 -2 -18 3 -18 13 0 17 30 18 33 0z m-9943 -75 c0 -5 -7 -10 -15 -10 -8
0 -15 5 -15 10 0 6 7 10 15 10 8 0 15 -4 15 -10z m9035 -50 c3 -5 1 -10 -4
-10 -6 0 -11 5 -11 10 0 6 2 10 4 10 3 0 8 -4 11 -10z m-10965 -121 c0 -5 -7
-9 -15 -9 -15 0 -20 12 -9 23 8 8 24 -1 24 -14z m9840 -59 c0 -5 -4 -10 -10
-10 -5 0 -10 5 -10 10 0 6 5 10 10 10 6 0 10 -4 10 -10z m1620 -90 c0 -5 -4
-10 -10 -10 -5 0 -10 5 -10 10 0 6 5 10 10 10 6 0 10 -4 10 -10z m150 -20 c0
-5 -4 -10 -10 -10 -5 0 -10 5 -10 10 0 6 5 10 10 10 6 0 10 -4 10 -10z
m-11373 -86 c-3 -3 -12 -4 -19 -1 -8 3 -5 6 6 6 11 1 17 -2 13 -5z m11075 -26
c12 -33 -19 -51 -41 -25 -8 10 -7 17 1 25 16 16 35 15 40 0z m-1107 -148 c3
-5 1 -10 -4 -10 -6 0 -11 5 -11 10 0 6 2 10 4 10 3 0 8 -4 11 -10z m478 -37
c9 -9 -13 -34 -24 -27 -14 8 -11 34 4 34 8 0 17 -3 20 -7z m-743 -168 c0 -8
-7 -15 -15 -15 -8 0 -15 7 -15 15 0 8 7 15 15 15 8 0 15 -7 15 -15z m-260
-129 c0 -3 -4 -8 -10 -11 -5 -3 -10 -1 -10 4 0 6 5 11 10 11 6 0 10 -2 10 -4z
m190 -246 c0 -5 -7 -10 -16 -10 -8 0 -12 5 -9 10 3 6 10 10 16 10 5 0 9 -4 9
-10z m-2450 -175 c0 -31 -73 -48 -84 -19 -8 20 -8 59 0 67 10 10 84 -32 84
-48z m2820 15 c0 -5 -7 -10 -15 -10 -8 0 -15 5 -15 10 0 6 7 10 15 10 8 0 15
-4 15 -10z"/>
<path d="M10680 10616 c0 -9 5 -16 10 -16 6 0 10 4 10 9 0 6 -4 13 -10 16 -5
3 -10 -1 -10 -9z"/>
<path d="M6744 9881 c-67 -15 -132 -35 -145 -44 -13 -10 -31 -17 -41 -17 -10
0 -18 -3 -18 -8 0 -4 -11 -14 -24 -22 -40 -25 -226 -210 -226 -225 0 -17 56
-48 75 -41 7 2 11 13 9 23 -9 32 174 109 317 133 74 13 244 8 304 -8 219 -61
356 -109 370 -132 3 -5 14 -10 24 -10 10 0 52 -18 95 -40 42 -22 84 -40 93
-40 10 0 28 -11 42 -24 15 -13 45 -26 67 -30 37 -5 44 -3 58 19 22 33 23 167
1 185 -8 7 -15 20 -15 29 0 19 -51 61 -73 61 -8 0 -20 7 -28 16 -25 31 -250
124 -299 124 -16 0 -62 11 -102 24 -96 31 -232 56 -305 55 -32 0 -112 -13
-179 -28z"/>
<path d="M8840 9489 c-25 -4 -65 -8 -89 -8 -34 -1 -51 -8 -80 -33 -46 -40 -49
-46 -62 -113 -18 -97 -50 -90 423 -90 369 0 421 -2 493 -19 108 -25 163 -45
169 -62 3 -8 12 -14 20 -14 38 0 248 -125 259 -154 4 -9 15 -16 25 -16 11 0
31 -15 46 -34 14 -19 35 -37 46 -41 13 -4 19 -14 17 -28 -3 -30 33 -34 58 -6
20 21 20 21 -2 39 -12 9 -25 30 -29 46 -6 25 -27 63 -81 150 -7 10 -20 33 -28
50 -9 17 -27 36 -40 42 -14 7 -25 18 -25 26 0 7 -16 26 -35 40 -19 15 -35 33
-35 41 0 7 -13 16 -30 20 -16 4 -30 11 -30 16 0 18 -181 100 -233 105 -29 3
-72 12 -97 19 -101 31 -535 47 -660 24z"/>
<path d="M6753 9220 c-76 -5 -110 -13 -136 -29 -19 -11 -43 -21 -53 -21 -19 0
-149 -64 -174 -86 -9 -7 -40 -19 -69 -26 l-53 -12 7 -50 c4 -30 15 -61 31 -79
13 -15 24 -36 24 -46 0 -18 45 -86 89 -134 41 -46 75 -57 204 -73 140 -16 288
-38 332 -48 85 -21 230 -58 249 -65 87 -33 171 -45 244 -35 33 5 41 10 37 23
-6 21 67 61 113 61 36 0 36 -1 21 90 -10 61 -59 183 -79 195 -5 3 -15 25 -22
48 -9 31 -32 61 -86 115 -41 39 -80 72 -85 72 -6 0 -41 18 -78 40 -37 22 -80
40 -96 40 -15 0 -43 4 -60 9 -49 14 -245 20 -360 11z m123 -134 c19 -14 19
-15 -2 -38 -51 -56 -70 -196 -39 -272 9 -20 13 -41 10 -46 -9 -14 -67 -12
-164 5 -146 26 -157 31 -192 82 -38 54 -72 140 -65 160 5 13 71 46 160 80 34
13 176 36 252 42 11 0 29 -5 40 -13z m259 -23 c13 -12 16 -28 12 -60 -7 -61
-20 -73 -83 -73 -44 0 -55 4 -65 21 -13 24 -16 99 -5 117 12 19 121 16 141 -5z
m318 -239 c65 -92 80 -129 67 -154 -6 -11 -16 -20 -23 -20 -7 0 -29 -11 -49
-25 -30 -20 -49 -25 -100 -25 -84 0 -97 9 -70 46 11 16 29 37 41 48 27 24 62
119 63 169 0 23 5 36 12 34 6 -2 32 -35 59 -73z"/>
<path d="M9075 8840 c-3 -5 -22 -10 -40 -10 -74 0 -135 -22 -286 -102 -27 -14
-53 -26 -57 -26 -4 0 -11 -9 -17 -21 -5 -12 -18 -24 -28 -27 -10 -3 -22 -17
-27 -30 -5 -13 -21 -29 -34 -35 -13 -6 -27 -20 -29 -30 -3 -10 -16 -23 -30
-28 -18 -7 -26 -19 -31 -48 -5 -33 -3 -41 22 -60 15 -13 39 -23 54 -23 18 0
29 -7 33 -20 9 -27 56 -73 107 -103 37 -21 60 -26 153 -31 61 -3 121 -8 135
-10 14 -2 50 -7 80 -10 30 -4 78 -11 105 -16 28 -6 104 -19 170 -30 66 -11
161 -29 210 -40 157 -34 204 -35 263 -10 29 13 57 31 63 41 5 11 19 19 30 19
11 0 23 10 28 23 10 24 60 65 104 84 15 7 27 20 27 30 0 16 -110 126 -185 185
-13 10 -27 27 -30 38 -4 11 -24 29 -45 40 -22 11 -44 29 -49 39 -6 10 -23 24
-38 30 -16 6 -53 27 -83 46 -30 19 -63 34 -73 35 -10 0 -36 9 -58 20 -22 12
-79 28 -127 36 -48 8 -95 19 -105 25 -10 5 -52 10 -93 11 -41 0 -77 4 -80 9
-7 12 -31 11 -39 -1z m10 -159 c3 -6 -9 -36 -26 -68 -30 -56 -31 -60 -26 -153
3 -52 8 -105 12 -117 11 -33 -24 -43 -94 -26 -31 7 -78 13 -104 13 -69 0 -106
20 -165 87 -59 69 -66 99 -24 109 15 4 38 17 52 29 37 34 174 103 217 110 21
4 49 10 63 15 35 12 88 12 95 1z m236 -5 c73 -18 103 -34 91 -49 -5 -7 -13
-23 -17 -37 -14 -48 -34 -60 -96 -60 -55 0 -59 2 -75 31 -11 23 -14 44 -9 80
8 56 12 57 106 35z m472 -221 c103 -88 110 -103 67 -152 -19 -21 -56 -51 -84
-67 -47 -27 -55 -28 -130 -23 -119 8 -141 20 -83 47 41 19 96 125 97 187 0 23
4 53 10 68 12 32 19 29 123 -60z"/>
<path d="M7670 8625 c-7 -9 -10 -18 -7 -21 10 -11 37 5 37 21 0 19 -14 19 -30
0z"/>
<path d="M6665 8610 c3 -5 8 -10 11 -10 2 0 4 5 4 10 0 6 -5 10 -11 10 -5 0
-7 -4 -4 -10z"/>
<path d="M11935 8211 c-77 -16 -121 -39 -190 -96 -16 -14 -34 -25 -41 -25 -6
0 -31 -25 -55 -55 -39 -49 -79 -72 -79 -45 0 6 -7 10 -15 10 -8 0 -15 -5 -15
-10 0 -6 7 -13 15 -16 25 -10 17 -31 -20 -53 -19 -11 -35 -25 -35 -30 0 -6
-13 -17 -30 -26 -16 -9 -36 -30 -44 -48 -7 -17 -26 -45 -42 -62 -46 -48 -74
-129 -74 -214 0 -116 -49 -273 -90 -286 -11 -4 -20 -10 -20 -15 0 -5 -12 -21
-28 -37 -18 -19 -33 -52 -45 -101 l-19 -72 23 -55 c19 -46 28 -56 58 -66 20
-7 47 -19 59 -27 20 -13 28 -13 44 -3 10 6 45 20 76 31 197 65 246 92 255 139
5 22 16 35 39 46 72 34 98 52 150 100 29 27 65 55 81 62 18 8 27 20 27 35 0
12 11 34 25 48 50 50 82 96 95 135 7 22 23 61 36 87 13 26 24 60 24 76 0 16 9
73 20 127 12 53 20 116 19 139 -1 22 2 48 5 57 5 12 -3 24 -25 42 -30 23 -32
28 -21 51 10 23 9 27 -17 41 -16 8 -31 21 -35 30 -6 18 10 25 94 45 30 7 62
16 70 21 13 7 13 8 0 12 -8 3 -30 10 -49 16 -47 15 -131 12 -226 -8z m-705
-1153 c0 -16 -3 -19 -11 -11 -6 6 -8 16 -5 22 11 17 16 13 16 -11z"/>
<path d="M11597 8103 c-4 -3 -7 -11 -7 -17 0 -6 5 -5 12 2 6 6 9 14 7 17 -3 3
-9 2 -12 -2z"/>
<path d="M11047 6953 c-4 -3 -7 -11 -7 -17 0 -6 5 -5 12 2 6 6 9 14 7 17 -3 3
-9 2 -12 -2z"/>
<path d="M2420 6555 c1 -26 2 -28 11 -12 8 14 8 22 0 30 -8 8 -11 3 -11 -18z"/>
<path d="M3625 5940 c3 -5 8 -10 11 -10 2 0 4 5 4 10 0 6 -5 10 -11 10 -5 0
-7 -4 -4 -10z"/>
<path d="M1115 5861 c-7 -12 12 -24 25 -16 11 7 4 25 -10 25 -5 0 -11 -4 -15
-9z"/>
<path d="M1242 5741 c2 -7 7 -12 11 -12 12 1 9 15 -3 20 -7 2 -11 -2 -8 -8z"/>
<path d="M2681 5724 c0 -11 3 -14 6 -6 3 7 2 16 -1 19 -3 4 -6 -2 -5 -13z"/>
<path d="M3437 5703 c-4 -3 -7 -11 -7 -17 0 -6 5 -5 12 2 6 6 9 14 7 17 -3 3
-9 2 -12 -2z"/>
<path d="M3115 5320 c-3 -5 3 -10 14 -10 12 0 21 5 21 10 0 6 -6 10 -14 10 -8
0 -18 -4 -21 -10z"/>
<path d="M3250 5320 c0 -5 5 -10 11 -10 5 0 7 5 4 10 -3 6 -8 10 -11 10 -2 0
-4 -4 -4 -10z"/>
<path d="M3373 5255 c0 -27 2 -38 4 -22 2 15 2 37 0 50 -2 12 -4 0 -4 -28z"/>
<path d="M960 5140 c0 -5 5 -10 10 -10 6 0 10 5 10 10 0 6 -4 10 -10 10 -5 0
-10 -4 -10 -10z"/>
<path d="M1287 5023 c-12 -11 -8 -23 8 -23 8 0 15 7 15 15 0 16 -12 20 -23 8z"/>
<path d="M1400 4980 c0 -5 6 -10 13 -10 6 0 22 -3 35 -6 16 -5 22 -2 22 10 0
12 -9 16 -35 16 -19 0 -35 -4 -35 -10z"/>
<path d="M1520 4940 c20 -13 33 -13 25 0 -3 6 -14 10 -23 10 -15 0 -15 -2 -2
-10z"/>
<path d="M1912 4566 c1 -10 8 -17 13 -17 15 1 12 24 -3 29 -9 3 -13 -2 -10
-12z"/>
<path d="M7310 6210 c8 -5 26 -10 40 -10 20 0 22 2 10 10 -8 5 -26 10 -40 10
-20 0 -22 -2 -10 -10z"/>
<path d="M7384 6192 c10 -17 223 -70 281 -70 38 0 219 -23 228 -29 14 -8 491
-3 499 5 4 4 -92 8 -215 9 -232 0 -519 27 -622 57 -27 8 -70 17 -95 21 -25 4
-53 9 -64 12 -11 3 -16 1 -12 -5z"/>
<path d="M9251 4684 c0 -11 3 -14 6 -6 3 7 2 16 -1 19 -3 4 -6 -2 -5 -13z"/>
<path d="M8585 3810 c-3 -5 -1 -10 4 -10 6 0 11 5 11 10 0 6 -2 10 -4 10 -3 0
-8 -4 -11 -10z"/>
</g>
</svg>
